<?xml version="1.0" encoding="UTF-8"?>
<svg width="301px" height="203px" viewBox="0 0 301 203" version="1.1" xmlns="http://www.w3.org/2000/svg" xmlns:xlink="http://www.w3.org/1999/xlink">
    <!-- Generator: Sketch 51.3 (57544) - http://www.bohemiancoding.com/sketch -->
    <title>adidas-logo</title>
    <desc>Created with Sketch.</desc>
    <defs></defs>
    <g id="Page-1" stroke="none" stroke-width="1" fill="none" fill-rule="evenodd">
        <g id="adidas-logo" transform="translate(-24.000000, -21.000000)" fill="#000000" fill-rule="nonzero">
            <g id="Group" transform="translate(297.152500, 182.150000) scale(-1, 1) rotate(-180.000000) translate(-297.152500, -182.150000) translate(242.265000, 138.240000)">
                <g id="Shape">
                    <g transform="translate(15.807600, 2.415050)">
                        <path d="M43.91,0 C29.880755,0 21.55981,7.179285 20.923115,17.52009 L34.33762,17.52009 C34.33762,14.073155 36.247705,9.48456 44.546695,9.199145 C50.298905,9.199145 53.48238,12.64608 53.48238,15.23677 C52.845685,19.254535 47.73017,19.53995 42.63661,20.41815 C36.8844,21.25244 32.427535,22.416055 29.222105,23.84313 C24.76524,26.148405 22.196505,31.04437 22.196505,36.203795 C22.196505,45.40294 29.880755,52.582225 43.273305,52.582225 C56.051115,52.582225 64.350105,45.97377 64.964845,35.91838 L52.20899,35.91838 C52.20899,38.487115 51.572295,42.81225 43.91,42.81225 C38.794485,42.81225 35.61101,41.956005 34.974315,38.223655 C34.974315,33.042275 45.820085,33.32769 54.119075,31.329785 C61.78137,29.309925 66.896885,24.435915 66.896885,17.52009 C66.896885,4.87401 56.68781,0 43.91,0"></path>
                    </g>
                </g>
            </g>
            <g id="Group" transform="translate(101.447000, 127.822500) scale(-1, 1) rotate(-180.000000) translate(-101.447000, -127.822500) translate(57.537000, 94.890000)">
                <polyline id="Shape" points="0 21.955 44.04173 47.532575 67.66531 7.003645 8.29899 7.003645"></polyline>
            </g>
            <g id="Group" transform="translate(161.127500, 189.187500) scale(-1, 1) rotate(-180.000000) translate(-161.127500, -189.187500) translate(150.150000, 156.255000)" stroke="#000000" stroke-width="12.887585">
                <path d="M0,0 L0,51.15515" id="Shape"></path>
            </g>
            <g id="Group" transform="translate(44.670000, 193.127500) scale(-1, 1) rotate(-180.000000) translate(-44.670000, -193.127500) translate(0.760000, 138.240000)">
                <g id="Shape">
                    <g transform="translate(14.380525, 6.806050)">
                        <path d="M21.955,43.91 C21.955,35.87447 28.9806,29.266015 36.62094,29.266015 C44.941885,29.266015 51.308835,35.87447 51.308835,43.91 C51.308835,51.660115 44.941885,58.553985 36.62094,58.553985 C28.9806,58.553985 21.955,51.660115 21.955,43.91 M35.984245,17.47618 C21.955,17.47618 9.83584,29.266015 9.83584,43.91 C9.83584,58.553985 21.955,70.058405 35.984245,70.058405 C41.736455,70.058405 46.85197,68.609375 51.308835,65.46981 L51.308835,69.487575 L64.086645,69.487575 L64.086645,18.639795 L51.308835,18.639795 L51.308835,21.801315 C47.488665,18.92521 41.736455,17.47618 35.984245,17.47618"></path>
                    </g>
                </g>
            </g>
            <g id="Group" transform="translate(221.590000, 76.897500) scale(-1, 1) rotate(-180.000000) translate(-221.590000, -76.897500) translate(155.725000, 0.055000)">
                <polyline id="Shape" points="65.865 0 4.588595 106.87694 48.630325 132.73993 125.23132 0"></polyline>
            </g>
            <g id="Group" transform="translate(110.535000, 193.127500) scale(-1, 1) rotate(-180.000000) translate(-110.535000, -193.127500) translate(66.625000, 138.240000)">
                <g id="Shape">
                    <g transform="translate(7.245150, 6.806050)">
                        <path d="M21.955,43.91 C21.955,35.87447 28.343905,29.266015 36.642895,29.266015 C44.283235,29.266015 51.33079,35.87447 51.33079,43.91 C51.33079,51.660115 44.283235,58.553985 36.642895,58.553985 C28.343905,58.553985 21.955,51.660115 21.955,43.91 M36.0062,17.47618 C21.318305,17.47618 9.83584,29.266015 9.83584,43.91 C9.83584,58.553985 21.318305,70.058405 36.0062,70.058405 C41.736455,70.058405 46.85197,68.609375 51.33079,65.46981 L51.33079,87.007665 L64.086645,87.007665 L64.086645,18.639795 L51.33079,18.639795 L51.33079,21.801315 C46.85197,18.92521 41.736455,17.47618 36.0062,17.47618"></path>
                    </g>
                </g>
            </g>
            <g id="Group" transform="translate(164.134500, 115.074000) scale(-1, 1) rotate(-180.000000) translate(-164.134500, -115.074000) translate(109.247000, 49.209000)">
                <polyline id="Shape" points="0 87.82 44.678425 113.090205 93.83567 27.202245 47.225205 27.202245 47.225205 14.556165 34.46935 14.556165 34.46935 27.202245"></polyline>
            </g>
            <g id="Group" transform="translate(242.265000, 193.127500) scale(-1, 1) rotate(-180.000000) translate(-242.265000, -193.127500) translate(132.490000, 138.240000)">
                <g id="Shape">
                    <g transform="translate(162.247450, 81.233500)">
                        <path d="M21.955,0 C18.74957,0 15.566095,2.876105 15.566095,6.32304 C15.566095,9.769975 18.74957,12.64608 21.955,12.64608 C25.77517,12.64608 28.343905,9.769975 28.343905,6.32304 C28.343905,2.876105 25.77517,0 21.955,0 M21.955,11.76788 C18.74957,11.76788 16.839485,9.199145 16.839485,6.32304 C16.839485,3.446935 18.74957,0.856245 21.955,0.856245 C25.138475,0.856245 27.04856,3.446935 27.04856,6.32304 C27.04856,9.199145 25.138475,11.76788 21.955,11.76788"></path>
                    </g>
                    <g transform="translate(163.564750, 84.087650)">
                        <path d="M21.955,0 L20.68161,2.876105 L19.40822,2.876105 L19.40822,0 L18.4422,0 L18.4422,6.89387 L21.318305,6.89387 C21.955,6.89387 23.22839,6.01567 23.22839,4.87401 C23.22839,3.73235 22.591695,3.16152 21.955,2.876105 L23.22839,0 M20.68161,6.01567 L19.40822,6.01567 L19.40822,3.73235 L20.68161,3.73235 C21.955,3.73235 21.955,4.017765 21.955,4.87401 C21.955,5.466795 21.955,6.01567 20.68161,6.01567"></path>
                    </g>
                    <g transform="translate(77.940250, 6.806050)">
                        <path d="M21.955,43.91 C21.955,35.87447 28.343905,29.266015 36.642895,29.266015 C44.30519,29.266015 51.308835,35.87447 51.308835,43.91 C51.308835,51.660115 44.30519,58.553985 36.642895,58.553985 C28.343905,58.553985 21.955,51.660115 21.955,43.91 M35.984245,17.47618 C21.318305,17.47618 9.83584,29.266015 9.83584,43.91 C9.83584,58.553985 21.318305,70.058405 35.984245,70.058405 C41.736455,70.058405 46.85197,68.609375 51.308835,65.46981 L51.308835,69.487575 L63.44995,69.487575 L63.44995,18.639795 L51.308835,18.639795 L51.308835,21.801315 C46.85197,18.92521 41.736455,17.47618 35.984245,17.47618"></path>
                    </g>
                    <g transform="translate(19.254535, 6.806050)">
                        <path d="M21.955,43.91 C21.955,35.87447 28.9806,29.266015 36.642895,29.266015 C44.941885,29.266015 51.33079,35.87447 51.33079,43.91 C51.33079,51.660115 44.941885,58.553985 36.642895,58.553985 C28.9806,58.553985 21.955,51.660115 21.955,43.91 Z M51.33079,87.007665 L64.086645,87.007665 L64.086645,18.639795 L51.33079,18.639795 L51.33079,21.801315 C47.488665,18.92521 42.37315,17.47618 36.642895,17.47618 C21.955,17.47618 9.83584,29.266015 9.83584,43.91 C9.83584,58.553985 21.955,70.058405 36.642895,70.058405 C42.37315,70.058405 47.488665,68.609375 51.33079,65.46981 L51.33079,87.007665 Z"></path>
                    </g>
                </g>
            </g>
        </g>
    </g>
</svg>