<?xml version="1.0" encoding="UTF-8"?>
<svg width="375px" height="69px" viewBox="0 0 375 69" version="1.1" xmlns="http://www.w3.org/2000/svg" xmlns:xlink="http://www.w3.org/1999/xlink">
    <!-- Generator: Sketch 51.3 (57544) - http://www.bohemiancoding.com/sketch -->
    <title>appveyor-logo</title>
    <desc>Created with Sketch.</desc>
    <defs></defs>
    <g id="Page-1" stroke="none" stroke-width="1" fill="none" fill-rule="evenodd">
        <g id="appveyor-logo" fill="#09A8EC">
            <path d="M34.12,0 C52.9584328,-3.02945105e-15 68.23,15.2715672 68.23,34.11 C68.23,52.9484328 52.9584328,68.22 34.12,68.22 C15.2815672,68.22 0.01,52.9484328 0.01,34.11 C0.01,15.2715672 15.2815672,3.46056397e-15 34.12,0 Z M42.49,40.74 C44.3142588,38.5346363 45.1847202,35.6933497 44.9088519,32.8445875 C44.6329837,29.9958252 43.23352,27.3743535 41.02,25.56 C36.2326469,21.9514687 29.4373497,22.8409055 25.74,27.56 C23.9031376,29.7676331 23.0250233,32.6179645 23.3011149,35.4765448 C23.5772064,38.335125 24.9845903,40.9647151 27.21,42.78 C31.9973531,46.3885313 38.7926503,45.4990945 42.49,40.78 L42.49,40.74 Z M24.27,62.88 C27.0919697,63.8772989 30.0489965,64.4403816 33.04,64.55 L47.88,43.11 C52.8065203,36.022198 51.4376034,26.3351491 44.74,20.89 C38.7646438,16.2841527 30.4424783,16.2595552 24.44,20.83 L3.81,36.83 C4.07379946,39.6914385 4.74734731,42.500133 5.81,45.17 L17.59,32.3 C16.7841372,37.6132673 18.6790504,42.9787137 22.6429557,46.6074433 C26.6068611,50.2361728 32.1184121,51.6509225 37.34,50.38 L24.27,62.88 Z M104.62,8.32 L124.34,50.66 L119.79,50.66 L113.18,36.74 L94.87,36.74 L88.34,50.66 L83.62,50.66 L103.62,8.32 L104.68,8.32 L104.62,8.32 Z M104.09,17.2 L96.81,32.61 L111.34,32.61 L104.09,17.2 Z M130.34,19.35 L134.34,19.35 L134.34,25.11 C135.762501,23.070585 137.64266,21.3924829 139.83,20.21 C141.976428,19.1116336 144.359115,18.5554443 146.77,18.59 C151.078362,18.53317 155.215957,20.2722642 158.19,23.39 C161.288725,26.4226103 163.006024,30.5947417 162.94,34.93 C163.02302,39.3076116 161.322879,43.5308917 158.23,46.63 C153.482388,51.5091209 146.151767,52.8167234 140.01,49.88 C137.812105,48.7532806 135.879264,47.1715551 134.34,45.24 L134.34,62.1 L130.34,62.1 L130.34,19.35 Z M146.49,22.48 C143.176033,22.4057216 139.983166,23.7264074 137.69,26.12 C135.312226,28.5220897 134.018988,31.7913077 134.11,35.17 C134.074141,37.402159 134.62225,39.6049363 135.7,41.56 C136.767867,43.4579891 138.348034,45.0173643 140.26,46.06 C142.170393,47.1484074 144.331311,47.7205166 146.53,47.72 C148.678017,47.7232159 150.786513,47.1425155 152.63,46.04 C154.542015,44.9202137 156.114507,43.3027939 157.18,41.36 C159.428442,37.4573502 159.428442,32.6526498 157.18,28.75 C155.023781,24.8552797 150.911655,22.4501464 146.46,22.48 L146.49,22.48 Z M170.53,19.35 L174.53,19.35 L174.53,25.11 C175.952501,23.070585 177.83266,21.3924829 180.02,20.21 C182.166428,19.1116336 184.549115,18.5554443 186.96,18.59 C191.268362,18.53317 195.405957,20.2722642 198.38,23.39 C201.478725,26.4226103 203.196024,30.5947417 203.13,34.93 C203.21302,39.3076116 201.512879,43.5308917 198.42,46.63 C193.672388,51.5091209 186.341767,52.8167234 180.2,49.88 C178.002105,48.7532806 176.069264,47.1715551 174.53,45.24 L174.53,62.1 L170.53,62.1 L170.53,19.35 Z M186.68,22.48 C183.366033,22.4057216 180.173166,23.7264074 177.88,26.12 C175.5194,28.5263177 174.24114,31.7905752 174.34,35.16 C174.304141,37.392159 174.85225,39.5949363 175.93,41.55 C176.997867,43.4479891 178.578034,45.0073643 180.49,46.05 C182.400393,47.1384074 184.561311,47.7105166 186.76,47.71 C188.908017,47.7132159 191.016513,47.1325155 192.86,46.03 C194.772015,44.9102137 196.344507,43.2927939 197.41,41.35 C199.658442,37.4473502 199.658442,32.6426498 197.41,28.74 C195.249435,24.8459765 191.133111,22.4444675 186.68,22.48 Z M208.16,8.33 L212.77,8.33 L226.82,41.1 L241.11,8.33 L245.72,8.33 L227.26,50.66 L226.32,50.66 L208.16,8.33 Z M278.54,40.28 L281.94,42.07 C280.972386,44.0420578 279.662013,45.826467 278.07,47.34 C276.627969,48.6384756 274.95592,49.6559498 273.14,50.34 C271.148105,51.0484716 269.043607,51.3873601 266.93,51.34 C261.803333,51.34 257.803333,49.6733333 254.93,46.34 C252.132611,43.234318 250.589364,39.1997764 250.6,35.02 C250.564772,31.1705978 251.865296,27.4280564 254.28,24.43 C257.226023,20.5840966 261.848128,18.3978149 266.69,18.56 C271.693083,18.395685 276.468978,20.6514859 279.52,24.62 C281.863081,27.6788948 283.087712,31.4480758 282.99,35.3 L254.69,35.3 C254.646033,38.6105596 255.90275,41.806211 258.19,44.2 C260.36403,46.4829496 263.398189,47.7459729 266.55,47.68 C268.146626,47.6801919 269.730815,47.3992354 271.23,46.85 C272.639179,46.3608971 273.947273,45.6187401 275.09,44.66 C276.453418,43.3727246 277.613323,41.8857537 278.53,40.25 L278.54,40.28 Z M278.54,31.85 C278.131408,29.9840716 277.326569,28.227749 276.18,26.7 C275.06989,25.3584518 273.662768,24.2936954 272.07,23.59 C270.391532,22.8082206 268.561597,22.4053617 266.71,22.41 C263.758421,22.3537137 260.896782,23.4268279 258.71,25.41 C256.890343,27.176337 255.61056,29.4237606 255.02,31.89 L278.5,31.89 L278.54,31.85 Z M287.05,19.35 L291.24,19.35 L302.04,43.36 L312.53,19.35 L316.83,19.35 L298.14,62.1 L293.84,62.1 L299.98,48.09 L287.05,19.35 Z M336.88,18.56 C341.45495,18.4514067 345.845187,20.3648181 348.88,23.79 C354.784371,30.2682208 354.679607,40.207671 348.64,46.56 C345.519195,49.694552 341.278216,51.4566853 336.855,51.4566853 C332.431784,51.4566853 328.190805,49.694552 325.07,46.56 C319.057595,40.2291649 318.948545,30.3317723 324.82,23.87 C327.849217,20.4336908 332.240244,18.5089573 336.82,18.61 L336.88,18.56 Z M336.88,22.56 C333.612452,22.5218211 330.479848,23.8612541 328.25,26.25 C325.86996,28.6323562 324.565974,31.883291 324.64,35.25 C324.630577,37.4599184 325.19572,39.6343404 326.28,41.56 C327.319892,43.4443078 328.859788,45.0049665 330.73,46.07 C334.54833,48.1919609 339.19167,48.1919609 343.01,46.07 C344.880212,45.0049665 346.420108,43.4443078 347.46,41.56 C348.54428,39.6343404 349.109423,37.4599184 349.1,35.25 C349.171095,31.8799301 347.859357,28.6276874 345.47,26.25 C343.245592,23.8653895 340.120861,22.5262192 336.86,22.56 L336.88,22.56 Z M359.11,19.35 L363.24,19.35 L363.24,23.93 C364.258958,22.3521982 365.581218,20.9925479 367.13,19.93 C368.391517,19.0852964 369.871884,18.6265911 371.39,18.61 C372.654463,18.6506422 373.887248,19.0156566 374.97,19.67 L372.87,23.05 C372.203074,22.7283882 371.479259,22.5414876 370.74,22.5 C369.282838,22.5451825 367.895266,23.1337413 366.85,24.15 C365.427323,25.5565365 364.435203,27.3395772 363.99,29.29 C363.49,31.07 363.24,34.6733333 363.24,40.1 L363.24,50.66 L359.11,50.66 L359.11,19.35 Z" id="Shape"></path>
        </g>
    </g>
</svg>