<?xml version="1.0" encoding="UTF-8"?>
<svg width="365px" height="77px" viewBox="0 0 365 77" version="1.1" xmlns="http://www.w3.org/2000/svg" xmlns:xlink="http://www.w3.org/1999/xlink">
    <!-- Generator: Sketch 51.3 (57544) - http://www.bohemiancoding.com/sketch -->
    <title>circleci-logo</title>
    <desc>Created with Sketch.</desc>
    <defs>
        <polygon id="path-1" points="0 0.862 365 0.862 365 76.94 0 76.94"></polygon>
        <polygon id="path-3" points="0 0.862 365 0.862 365 76.94 0 76.94"></polygon>
    </defs>
    <g id="Page-1" stroke="none" stroke-width="1" fill="none" fill-rule="evenodd">
        <g id="circleci-logo">
            <g id="Clipped">
                <mask id="mask-2" fill="white">
                    <use xlink:href="#path-1"></use>
                </mask>
                <g id="Shape"></g>
                <path d="M37.096,29.931 C42.134,29.931 46.218,34.015 46.218,39.053 C46.218,44.091 42.134,48.175 37.096,48.175 C32.058,48.175 27.974,44.091 27.974,39.053 C27.974,34.015 32.058,29.931 37.096,29.931" id="Shape" fill="#0A0B09" mask="url(#mask-2)"></path>
            </g>
            <g id="Clipped">
                <mask id="mask-4" fill="white">
                    <use xlink:href="#path-3"></use>
                </mask>
                <g id="Shape"></g>
                <path d="M323.526,62.527 C334.472,62.527 343.715,54.986 346.27,44.891 C346.27,44.769 346.27,44.769 346.27,44.647 C346.27,44.039 345.783,43.553 345.175,43.553 L335.688,43.553 C335.202,43.553 334.837,43.796 334.715,44.161 C332.769,48.418 328.512,51.337 323.526,51.337 C316.714,51.337 311.241,45.864 311.241,39.053 C311.241,32.242 316.714,26.768 323.526,26.768 C328.391,26.768 332.647,29.566 334.715,33.944 C334.837,34.309 335.323,34.552 335.688,34.552 L345.175,34.552 C345.783,34.552 346.27,34.066 346.27,33.458 C346.27,33.336 346.27,33.336 346.27,33.215 C343.715,22.998 334.472,15.579 323.526,15.579 C310.512,15.579 300.052,26.039 300.052,39.053 C300.052,52.067 310.512,62.527 323.526,62.527 Z M363.905,16.674 L363.905,60.337 C363.905,60.945 363.419,61.432 362.811,61.432 L353.81,61.432 C353.202,61.432 352.716,60.945 352.716,60.337 L352.716,16.674 L363.905,16.674 Z M358.311,0.984 C354.662,0.984 351.621,4.024 351.621,7.673 C351.621,11.322 354.662,14.363 358.311,14.363 C361.959,14.363 365,11.322 365,7.673 C365,4.024 361.959,0.984 358.311,0.984 Z M253.712,34.552 C255.658,27.498 262.104,22.268 269.888,22.268 C277.672,22.268 284.119,27.498 286.065,34.552 L253.712,34.552 Z M269.888,15.579 C256.874,15.579 246.415,26.039 246.415,39.053 C246.415,52.067 256.874,62.527 269.888,62.527 C279.01,62.527 287.038,57.297 290.808,49.634 C291.051,49.148 290.93,48.418 290.322,48.175 C290.2,48.053 289.957,48.053 289.835,48.053 L284.605,48.053 C284.24,48.053 283.875,48.175 283.754,48.539 C280.713,53.04 275.605,55.959 269.888,55.959 C261.375,55.959 254.32,49.634 253.226,41.363 L292.146,41.363 C292.754,41.363 293.241,40.877 293.241,40.269 C293.241,39.904 293.241,39.539 293.241,39.053 C293.362,26.039 282.781,15.579 269.888,15.579 Z M238.509,2.2 L234.009,2.2 C233.401,2.2 232.914,2.686 232.914,3.295 L232.914,60.337 C232.914,60.945 233.401,61.432 234.009,61.432 L238.509,61.432 C239.117,61.432 239.603,60.945 239.603,60.337 L239.603,3.295 C239.603,2.686 239.117,2.2 238.509,2.2 Z M225.13,48.053 L219.9,48.053 C219.535,48.053 219.17,48.175 219.049,48.539 C216.008,53.04 210.9,55.959 205.183,55.959 C195.94,55.959 188.399,48.418 188.399,39.174 C188.399,29.931 195.94,22.39 205.183,22.39 C211.021,22.39 216.008,25.309 219.049,29.809 C219.292,30.052 219.535,30.296 219.9,30.296 L225.13,30.296 C225.738,30.296 226.225,29.809 226.225,29.201 C226.225,29.079 226.225,28.836 226.103,28.714 C222.211,21.052 214.305,15.822 205.183,15.822 C192.169,15.822 181.709,26.282 181.709,39.296 C181.709,52.31 192.169,62.77 205.183,62.77 C214.305,62.77 222.333,57.54 226.103,49.877 C226.225,49.756 226.225,49.512 226.225,49.391 C226.225,48.539 225.738,48.053 225.13,48.053 Z M180.615,15.579 C173.804,15.944 168.452,19.106 164.925,24.093 L164.925,17.768 C164.925,17.16 164.439,16.674 163.83,16.674 L159.33,16.674 C158.722,16.674 158.236,17.16 158.236,17.768 L158.236,60.337 C158.236,60.945 158.722,61.432 159.33,61.432 L163.83,61.432 C164.439,61.432 164.925,60.945 164.925,60.337 L164.925,39.053 C164.925,30.174 171.858,22.876 180.615,22.268 C181.223,22.268 181.709,21.782 181.709,21.174 L181.709,16.674 C181.709,16.065 181.223,15.579 180.615,15.579 Z M151.425,60.337 L151.425,16.674 L144.735,16.674 L144.735,60.337 C144.735,60.945 145.222,61.432 145.83,61.432 L150.33,61.432 C150.938,61.432 151.425,60.945 151.425,60.337 Z M152.641,7.795 C152.641,10.227 150.695,12.295 148.141,12.295 C145.708,12.295 143.64,10.349 143.64,7.795 C143.64,5.362 145.586,3.295 148.141,3.295 C150.573,3.295 152.641,5.241 152.641,7.795 Z M136.951,48.053 L131.721,48.053 C131.356,48.053 130.991,48.175 130.87,48.539 C127.829,53.04 122.721,55.959 117.004,55.959 C107.761,55.959 100.22,48.418 100.22,39.174 C100.22,29.931 107.761,22.39 117.004,22.39 C122.842,22.39 127.829,25.309 130.87,29.809 C131.113,30.052 131.356,30.296 131.721,30.296 L136.951,30.296 C137.559,30.296 138.046,29.809 138.046,29.201 C138.046,29.079 138.046,28.836 137.924,28.714 C134.032,21.052 126.126,15.822 117.004,15.822 C103.99,15.822 93.531,26.282 93.531,39.296 C93.531,52.31 103.99,62.77 117.004,62.77 C126.126,62.77 134.154,57.54 137.924,49.877 C138.046,49.756 138.046,49.512 138.046,49.391 C138.046,48.539 137.559,48.053 136.951,48.053 Z M37.096,0.862 C19.339,0.862 4.379,13.025 0.122,29.444 C0.122,29.566 7.80486786e-14,29.687 7.80486786e-14,29.931 C7.80486786e-14,30.904 0.851,31.755 1.824,31.755 L17.271,31.755 C18.001,31.755 18.609,31.269 18.974,30.66 C18.974,30.66 18.974,30.66 18.974,30.539 C22.136,23.728 29.069,18.984 37.096,18.984 C48.164,18.984 57.043,27.985 57.043,38.931 C57.043,49.877 48.042,58.878 37.096,58.878 C29.069,58.878 22.136,54.134 18.974,47.323 L18.974,47.202 C18.73,46.593 18.001,46.107 17.271,46.107 L1.824,46.107 C0.851,46.107 7.61612995e-14,46.958 7.61612995e-14,47.931 C7.61612995e-14,48.053 7.61612995e-14,48.296 0.122,48.418 C4.379,64.837 19.339,77 37.096,77 C58.137,77 75.287,59.972 75.287,38.809 C75.287,17.646 58.259,0.862 37.096,0.862 Z" id="Shape" fill="#0A0B09" mask="url(#mask-4)"></path>
            </g>
        </g>
    </g>
</svg>