<?xml version="1.0" encoding="UTF-8"?>
<svg width="177px" height="177px" viewBox="0 0 177 177" version="1.1" xmlns="http://www.w3.org/2000/svg" xmlns:xlink="http://www.w3.org/1999/xlink">
    <!-- Generator: Sketch 51.3 (57544) - http://www.bohemiancoding.com/sketch -->
    <title>dow-jones-logo</title>
    <desc>Created with Sketch.</desc>
    <defs></defs>
    <g id="Page-1" stroke="none" stroke-width="1" fill="none" fill-rule="evenodd">
        <g id="dow-jones-logo" fill-rule="nonzero">
            <path d="M29.7128823,156.102079 C28.453025,156.129431 27.1940616,156.282691 26.4016371,156.551932 C24.7562358,157.110987 23.0574944,158.522449 22.2805536,159.976667 C21.7517272,160.966482 21.6905361,161.50967 21.6103957,165.930028 C21.552407,169.128532 21.6276964,171.145427 21.8296748,171.81971 C22.5068213,174.080338 24.2621684,175.835707 26.607562,176.597597 C27.3497805,176.838702 28.61314,176.940289 30.2428446,176.889797 C34.1621231,176.768361 36.3850503,175.498841 37.6397411,172.666008 C38.1517138,171.510121 38.2507639,170.760277 38.3417369,167.351481 C38.4635513,162.786901 38.1786113,160.950215 37.0974528,159.340403 C36.2417284,158.06628 34.5734603,156.864506 33.0282345,156.408142 C32.2332858,156.173364 30.9727396,156.074726 29.7128823,156.102079 Z M30.0610564,160.032129 C31.1840809,160.063717 32.2918924,160.454925 33.0333694,161.22814 L33.792368,162.019492 L33.8668317,166.27512 C33.9512315,171.097166 33.7559262,171.760975 32.0088771,172.590004 C30.1113018,173.490458 27.601163,172.938152 26.4488826,171.366262 C25.9528695,170.689602 25.9045382,170.256153 25.9045382,166.502101 C25.9045382,162.893379 25.9661237,162.28914 26.4016371,161.646668 C27.148278,160.545188 28.6171655,159.991515 30.0610564,160.032129 Z" id="path3551" fill="#0D2A30"></path>
            <path d="M84.0809066,176.711262 C81.9338919,176.064789 80.5794727,174.498871 80.2243889,172.252538 L80.0146252,170.925726 L82.1783621,170.925726 C84.3406528,170.925726 84.3423093,170.926252 84.6729671,171.724558 C85.2499619,173.117533 86.9167392,173.480134 88.178976,172.487266 L88.8678728,171.945386 L88.937496,164.139313 L89.0071192,156.333241 L91.1105405,156.333241 L93.2139618,156.333241 L93.2837428,164.074118 C93.3653556,173.128986 93.2311836,173.988344 91.5050635,175.46584 C90.9287261,175.959155 89.9988824,176.500092 89.438715,176.667919 C88.2874074,177.012859 85.1664035,177.038105 84.0809066,176.711262 Z" id="path3547" fill="#0D2A30"></path>
            <path d="M106.754794,156.090781 C104.576096,156.088677 104.055289,156.181328 102.679941,156.817426 C100.731805,157.718442 100.058605,158.333346 99.178165,160.014156 C98.528313,161.254788 98.4834838,161.582942 98.389382,165.840672 C98.3093205,169.463397 98.3743951,170.644068 98.7200924,171.833062 C99.3991557,174.168898 101.497871,176.116108 103.994053,176.726495 C105.503442,177.09559 108.755384,176.986665 110.208296,176.518514 C112.217011,175.871281 114.188048,173.908126 114.749451,171.995338 C115.317506,170.059883 115.337121,162.913525 114.77974,161.036594 C114.232377,159.193427 112.903147,157.753853 110.912337,156.848238 C109.458926,156.187075 108.941852,156.092884 106.754794,156.090781 Z M106.814373,160.047022 C107.697021,160.063823 108.582009,160.257164 109.170967,160.621148 C110.552363,161.4749 110.698709,162.05577 110.698709,166.695702 C110.698709,170.563962 110.658822,170.905398 110.128681,171.579376 C109.815166,171.977927 109.168023,172.46713 108.690809,172.666521 C106.736836,173.482938 104.254115,172.895276 103.342887,171.400669 C102.872377,170.628934 102.811904,170.078077 102.811904,166.49645 C102.811904,162.030598 102.983149,161.411987 104.473186,160.531794 C105.051759,160.190017 105.931699,160.030231 106.814373,160.047022 Z" id="path3545" fill="#0D2A30"></path>
            <path d="M165.43317,176.582867 C163.917997,176.110023 162.422569,175.044151 161.616512,173.862541 C160.902611,172.816013 160.271742,170.807119 160.527176,170.393805 C160.614495,170.252531 161.604128,170.136943 162.726382,170.136943 C164.76486,170.136943 164.7672,170.137732 165.14295,170.972687 C165.779787,172.38779 166.747756,172.897683 168.797329,172.897683 C170.922284,172.897683 171.697868,172.405554 171.697868,171.05719 C171.697868,169.823851 171.021566,169.387644 167.838458,168.567914 C164.174798,167.624432 163.786506,167.459653 162.51065,166.306989 C160.249288,164.264004 160.069866,160.588033 162.120702,158.318021 C165.156833,154.957369 172.2929,155.376933 174.729845,159.059369 C175.098391,159.616305 175.469829,160.502676 175.555254,161.029084 L175.710565,161.986185 L173.594681,161.986185 C171.632794,161.986185 171.443433,161.937662 170.99317,161.319527 C169.496217,159.264563 165.124677,159.754584 165.124677,161.977343 C165.124677,163.104827 166.047553,163.663611 169.224403,164.459654 C172.424837,165.261609 173.321131,165.658023 174.531545,166.80688 C175.428549,167.658295 176.168822,169.574959 176.166166,171.039179 C176.161696,173.576994 174.462894,175.811266 171.976756,176.549567 C170.26202,177.058792 167.011209,177.075336 165.43317,176.582867 Z" id="path3541" fill="#0D2A30"></path>
            <path d="M0.137627487,156.333168 L0.0688140597,166.521615 L3.26179411e-06,176.710062 L5.0469812,176.710062 C11.0794935,176.710062 12.5173686,176.415007 14.3501006,174.80178 C16.4718716,172.934121 16.6854215,172.255381 16.7878318,167.049011 C16.8596347,163.398579 16.7941158,162.26591 16.4519812,161.235844 C15.8405271,159.394929 14.5307267,158.000072 12.5773924,157.1086 C10.9231226,156.353614 10.8992671,156.350706 5.52764452,156.341898 L0.137627487,156.333168 Z M4.47593388,160.408547 L7.27108102,160.408547 C9.59141236,160.408547 10.2091136,160.496646 10.9032847,160.925671 C12.315853,161.798685 12.4952275,162.439626 12.4952275,166.609428 C12.4952275,170.81942 12.2944717,171.39266 10.5042709,172.305508 C9.8287072,172.649986 8.96041753,172.765369 7.03947856,172.765632 L4.47593388,172.766158 L4.47593388,166.587358 L4.47593388,160.408547 Z" id="path3539" fill="#0D2A30"></path>
            <path d="M46.1500421,176.118547 C45.7179205,174.309744 42.3374596,157.067803 42.3374596,156.672544 C42.3374596,156.259781 42.5939455,156.201777 44.4190842,156.201777 L46.5007088,156.201777 L46.7571158,157.450683 C46.8981239,158.137582 47.4623141,161.152429 48.0108864,164.150343 C48.5594586,167.148257 49.0439554,169.565409 49.0875751,169.521792 C49.1311948,169.478175 49.7681108,167.439447 50.5029147,164.991285 C51.2377449,162.543124 52.135564,159.55809 52.498115,158.357878 L53.1572746,156.175676 L54.5036483,156.254457 L55.850022,156.333241 L57.8140916,162.972251 C58.8943299,166.623706 59.8120263,169.577367 59.8534637,169.535945 C59.8948748,169.494521 60.4675575,166.583149 61.1260861,163.066232 C61.7846148,159.549311 62.3887699,156.566071 62.4686474,156.436805 C62.6438361,156.153374 66.4449812,156.118702 66.6162786,156.398973 C66.682589,156.50743 65.8333326,161.121811 64.7290364,166.653151 L62.7212682,176.710134 L60.3450595,176.710134 L57.9688245,176.710134 L56.2917667,171.320117 C55.3693902,168.355608 54.544034,165.932377 54.4576885,165.935159 C54.3713168,165.937946 53.9253652,167.150697 53.4666616,168.630167 C53.007958,170.10964 52.2526457,172.532871 51.788184,174.015126 L50.9437129,176.710134 L48.6175393,176.710134 C46.4223826,176.710134 46.2834253,176.676816 46.1500421,176.118547 Z" id="path3535" fill="#0D2A30"></path>
            <polygon id="path3533" fill="#0D2A30" points="120.226676 166.521687 120.295511 156.333241 122.398932 156.261243 124.502353 156.189246 128.577732 162.700449 132.653111 169.21165 132.723418 162.706715 132.793751 156.201777 134.892571 156.201777 136.991417 156.201777 136.991417 166.455956 136.991417 176.710134 134.822264 176.709083 132.653111 176.708031 128.709196 170.411266 124.765281 164.114501 124.694869 170.412202 124.624457 176.709906 122.391149 176.709906 120.157868 176.709906 120.226676 166.521459"></polygon>
            <polygon id="path3531" fill="#0D2A30" points="142.512898 166.451517 142.512898 156.1929 149.283285 156.26307 156.053673 156.333241 156.053673 158.305198 156.053673 160.277156 151.51817 160.349095 146.982668 160.421037 146.982668 162.379938 146.982668 164.338838 150.992315 164.411417 155.001962 164.483998 155.07921 166.390224 155.156458 168.296449 151.069563 168.296449 146.982668 168.296449 146.982668 170.531334 146.982668 172.766219 151.583902 172.766219 156.185136 172.766219 156.185136 174.738177 156.185136 176.710134 149.349017 176.710134 142.512898 176.710134 142.512898 166.451517"></polygon>
            <path d="M39.1823277,58.6486263 L39.1823277,0.00876952697 L71.4566979,0.0895566798 L103.731068,0.170341203 L106.491809,0.861796251 C119.877561,4.21438684 129.695411,12.7641134 134.499757,25.2520782 C135.656244,28.2581906 136.717052,33.1287178 136.911908,36.3273143 L137.070848,38.9360404 L127.318913,38.9360404 L117.566979,38.9360404 L117.41527,37.6871341 C116.911106,33.5369235 115.602173,30.2306949 113.256306,27.1820724 C110.910019,24.1329003 107.379689,21.6607151 103.468141,20.327685 L101.364719,19.6108574 L80.1333107,19.536257 L58.9019022,19.4616591 L58.9019022,58.6467464 L58.9019022,97.8318363 L68.6302256,97.8318363 L78.358549,97.8318363 L78.358549,107.56016 L78.358549,117.288483 L58.7704383,117.288483 L39.1823277,117.288483 L39.1823277,58.6486263 Z" id="path3529" fill="#13A3D7"></path>
            <path d="M93.082498,107.63786 L93.082498,97.911832 L96.5662895,97.7347502 C98.4823748,97.6373539 100.799214,97.3818408 101.714834,97.1669396 C107.335359,95.8477815 112.77833,91.5498924 115.313032,86.4295103 C117.433254,82.1464135 117.356821,82.8216932 117.466777,67.3979596 L117.564718,53.6599894 L127.293804,53.6599894 L137.02289,53.6599894 L136.923608,68.5811341 L136.824327,83.5022788 L136.144159,86.2630192 C134.23257,94.0217594 130.914975,99.9582874 125.41955,105.453709 C120.959219,109.914056 116.030509,113.018767 110.21447,115.03177 C105.871063,116.53508 103.012145,117.03445 97.7494639,117.20905 L93.082498,117.363886 L93.082498,107.63786 Z" id="path3525" fill="#13A3D7"></path>
        </g>
    </g>
</svg>