<svg height="98" viewBox="0 0 361 98" width="361" xmlns="http://www.w3.org/2000/svg"><g fill="#100e0f"><path d="m69.37 41.69h-30.26c-.3774246-.0026864-.7401701.1460575-1.0070563.4129437s-.4156301.6296317-.4129437 1.0070563v14.79c0 .3766074.1496067.73779.4159084 1.0040916.2663016.2663017.6274842.4159084 1.0040916.4159084h11.8v18.39s-2.65.9-10 .9c-8.65 0-20.73-3.16-20.73-29.72s12.6-30.07 24.41-30.07c10.23 0 14.63 1.8 17.43 2.67.4164399.0800906.8469472-.0287835 1.1752465-.2972165.3282993-.2684329.520523-.668733.5247535-1.0927835l3.37-14.3c.0131585-.43344304-.189031-.84531045-.54-1.1-1.14-.82-8.08-4.7-25.62-4.7-20.2 0-40.93 8.6-40.93 49.92s23.73 47.49 43.73 47.49c16.55 0 26.6-7.08 26.6-7.08.3231815-.2568703.4959471-.6587379.46-1.07v-46.15c0-.7842443-.6357557-1.42-1.42-1.42z"/><path d="m225.36 5c.016227-.37571287-.118306-.74234054-.373694-1.01838487-.255388-.27604432-.610467-.43862981-.986306-.45161513h-17c-.399948-.02598227-.792055.11946851-1.078306.39999395-.28625.28052544-.439592.66961437-.421694 1.07000605v32.89h-26.56v-32.89c.002664-.37568488-.144712-.73689826-.409427-1.00349132-.264716-.26659305-.624879-.41651813-1.000573-.41650868h-17c-.382578-.01086841-.753138.13425482-1.026584.40204404-.273447.26778922-.426285.63523419-.423416 1.01795596v89.13c-.002662.3766102.144399.7388517.408827 1.0070308s.624563.4203264 1.001173.4229692h17c.37661-.0026428.736745-.1547901 1.001173-.4229692s.411489-.6304206.408827-1.0070308v-38.13h26.6v38.15c-.002662.3766102.144399.7388517.408827 1.0070308s.624563.4203264 1.001173.4229692h17.09c.781946-.0109374 1.410076-.6479778 1.41-1.43z"/><path d="m101.53 16.65c-.060607-6.0604431-5.0119885-10.9300611-11.0726007-10.88975676-6.0606121.04030435-10.9467901 4.97534416-10.9267894 11.03605736.0200008 6.0607131 4.9386439 10.9633964 10.9993901 10.9636994 2.9365405.0001468 5.7512337-1.1738661 7.8173253-3.2606186 2.0660917-2.0867524 3.2120397-4.9129877 3.1826747-7.8493814z"/><path d="m100.31 75.32v-41.17c.000019-.7803556-.6296637-1.4145045-1.41-1.42h-17c-.8221138.0809275-1.4537015.7640734-1.47 1.59v59c0 1.74 1.08 2.25 2.48 2.25h15.3c1.68 0 2.09-.82 2.09-2.27z"/><path d="m290.12 32.87h-16.91c-.373958.0026428-.731549.1537365-.994102.4200402s-.40856.6260017-.405898.9999598v43.71c-3.090631 2.0291712-6.702822 3.1197749-10.4 3.14-6.1 0-7.72-2.76-7.72-8.74v-38.11c.002662-.3739581-.143345-.7336561-.405898-.9999598s-.620144-.4173974-.994102-.4200402h-17.17c-.373958.0026428-.731549.1537365-.994102.4200402s-.40856.6260017-.405898.9999598v41c0 17.74 9.88 22.08 23.48 22.08 11.15 0 20.15-6.17 20.15-6.17.141142 1.223588.348109 2.4386825.62 3.64.250706.4554079.720643.7472237 1.24.77h10.92c.780336-.0054955 1.410019-.6396444 1.41-1.42v-59.9c-.00545-.781976-.638024-1.4145505-1.42-1.42z"/><path d="m336.35 30.86c-5.66637-.0354191-11.239034 1.4457909-16.14 4.29v-30.15c.002664-.37568488-.144712-.73689826-.409427-1.00349132-.264716-.26659305-.624879-.41651813-1.000573-.41650868h-17.09c-.375694-.00000945-.735857.14991563-1.000573.41650868-.264715.26659306-.412091.62780644-.409427 1.00349132v89.13c-.002662.3766102.144399.7388517.408827 1.0070308s.624563.4203264 1.001173.4229692h11.86c.520917-.0085364.995971-.2996989 1.24-.76.340453-1.3504922.581102-2.7241988.72-4.11 0 0 7 6.62 20.22 6.62 15.53 0 24.43-7.88 24.43-35.37s-14.18-31.08-23.83-31.08zm-6.67 50.25c-3.47216-.0888488-6.86352-1.0666622-9.85-2.84v-28.27c2.687388-1.5368248 5.662548-2.5035817 8.74-2.84 6.09-.54 12 1.3 12 15.82-.04 15.35-2.69 18.38-10.89 18.13z"/><path d="m149.29 32.72h-12.78v-16.88c0-.64-.33-1-1.07-1h-17.44c-.68 0-1 .3-1 .95v17.49s-8.73 2.11-9.32 2.28c-.597857.1816757-1.004836.7351671-1 1.36v11c.013719.7352244.586464 1.3383426 1.32 1.39h9v26.38c0 19.6 13.75 21.52 23 21.52 3.44233-.1050244 6.855482-.6665971 10.15-1.67.508375-.2170692.827653-.7279134.8-1.28v-12.06c-.005366-.7781254-.631932-1.4091354-1.41-1.42-.75 0-2.65.3-4.61.3-6.28 0-8.41-2.92-8.41-6.7v-25.07h12.78c.37661-.0026428.736745-.1547901 1.001173-.4229692s.411489-.6304206.408827-1.0070308v-13.73c.002664-.3783371-.145765-.7420939-.412356-1.0105623s-.629298-.4194471-1.007644-.4194377z"/></g></svg>