<?xml version="1.0" encoding="UTF-8"?>
<svg width="216px" height="31px" viewBox="0 0 216 24" version="1.1" xmlns="http://www.w3.org/2000/svg" xmlns:xlink="http://www.w3.org/1999/xlink">
    <!-- Generator: Sketch 51.3 (57544) - http://www.bohemiancoding.com/sketch -->
    <title>github-enterprise-logo</title>
    <desc>Created with Sketch.</desc>
    <defs></defs>
    <g id="Page-1" stroke="none" stroke-width="1" fill="none" fill-rule="evenodd">
        <g id="github-enterprise-logo" fill="#100E0F" fill-rule="nonzero">
            <path d="M105.6,12.3 L95.8,12.3 L95.8,21.1 L106.7,21.1 L106.7,23 L93.7,23 L93.7,0.8 L106.6,0.8 L106.6,2.7 L95.8,2.7 L95.8,10.5 L105.6,10.5 L105.6,12.3 Z M118.6,12.2 C118.6,10.3 117.5,9.7 115.6,9.7 C113.7,9.7 112.7,10 111.6,10.6 L111.6,23 L109.5,23 L109.5,8.2 L110.7,8.2 L111.1,9.4 C112.5,8.4 114,7.9 115.6,7.9 C119.1,7.9 120.6,9.5 120.6,12.3 L120.6,23 L118.5,23 L118.5,12.2 L118.6,12.2 Z M131.8,23.1 C131.4,23.2 130.9,23.2 130.5,23.2 C128,23.2 125.8,22.1 125.8,19.2 L125.8,9.8 L122.8,9.8 L122.8,8.9 L125.8,8 L125.8,4 L127.9,3.4 L127.9,8.1 L132.5,8.1 L132.5,9.7 L127.9,9.7 L127.9,19 C127.9,20.8 128.9,21.5 130.7,21.5 C131.1,21.5 131.5,21.5 131.9,21.4 L131.9,23.1 L131.8,23.1 Z M140.3,7.9 C145.3,7.9 145.9,11.3 145.9,15.6 L145.9,16.5 L136.1,16.5 C136.2,19.1 136.9,21.4 140.2,21.4 C142.3,21.4 143.6,21.2 145.1,20.6 L145.1,22.4 C143.4,23.1 141.7,23.3 140.2,23.3 C135.2,23.3 134,19.9 134,15.6 C134.1,11.3 135.3,7.9 140.3,7.9 Z M136.2,14.8 L143.9,14.8 C143.9,12.2 143.8,9.7 140.3,9.7 C136.9,9.7 136.2,12.2 136.2,14.8 Z M157.1,9.9 C156.7,9.8 156.1,9.7 155.3,9.7 C153.3,9.7 152.1,10 151,10.6 L151,23 L148.9,23 L148.9,8.2 L150.1,8.2 L150.5,9.4 C151.9,8.4 153.6,7.9 155.3,7.9 C156,7.9 156.5,8 157.1,8 L157.1,9.9 Z M161.5,22 L161.5,30.3 L159.4,30.3 L159.4,8.2 L160.6,8.2 L161,9.4 C162.5,8.4 164,7.9 165.6,7.9 C170.4,7.9 171.7,11.3 171.7,15.6 C171.7,19.9 170.4,23.3 165.6,23.3 C164.3,23.3 162.8,22.9 161.5,22 Z M169.6,15.6 C169.6,12.7 169.2,9.7 165.6,9.7 C163.7,9.7 162.6,10 161.5,10.6 L161.5,20.4 C162.7,21 163.7,21.3 165.6,21.3 C169.2,21.4 169.6,18.5 169.6,15.6 Z M182.8,9.9 C182.4,9.8 181.8,9.7 181,9.7 C179,9.7 177.8,10 176.7,10.6 L176.7,23 L174.6,23 L174.6,8.2 L175.8,8.2 L176.2,9.4 C177.6,8.4 179.3,7.9 181,7.9 C181.7,7.9 182.2,8 182.8,8 L182.8,9.9 Z M186.4,2.2 C187.2,2.2 187.9,2.9 187.9,3.7 C187.9,4.5 187.2,5.2 186.4,5.2 C185.6,5.2 184.9,4.5 184.9,3.7 C184.9,2.9 185.6,2.2 186.4,2.2 Z M185.4,20 L185.4,8.2 L187.4,8.2 L187.4,20.3 C187.4,21.3 187.7,21.6 188.6,21.6 L188.6,23.3 C186.5,23.3 185.4,22.4 185.4,20 Z M196.4,14.5 C200.6,14.9 201.6,16.3 201.6,18.7 C201.6,21 200.1,23.3 195.6,23.3 C194.2,23.3 192.1,22.9 191.2,22.6 L191.2,20.8 C192.1,21.1 193.5,21.5 195.6,21.5 C198.7,21.5 199.5,20.2 199.5,18.8 C199.5,17.4 199.1,16.5 196.2,16.3 C191.9,15.9 191,14.4 191,12.4 C191,10.3 192.4,8 196.5,8 C197.9,8 199.5,8.2 200.8,8.7 L200.8,10.5 C199.6,10.1 198.5,9.8 196.5,9.8 C193.6,9.8 192.9,10.9 192.9,12.3 C193,13.5 193.6,14.2 196.4,14.5 Z M210.4,7.9 C215.4,7.9 216,11.3 216,15.6 L216,16.5 L206.2,16.5 C206.3,19.1 207,21.4 210.3,21.4 C212.4,21.4 213.7,21.2 215.2,20.6 L215.2,22.4 C213.5,23.1 211.8,23.3 210.3,23.3 C205.3,23.3 204.1,19.9 204.1,15.6 C204.2,11.3 205.4,7.9 210.4,7.9 Z M206.2,14.8 L213.9,14.8 C213.9,12.2 213.8,9.7 210.3,9.7 C206.9,9.7 206.3,12.2 206.2,14.8 Z M16.6,10 L9.4,10 C9.2,10 9,10.1 9,10.3 L9,13.8 C9,14 9.2,14.1 9.3,14.1 L12.1,14.1 L12.1,18.5 C12.1,18.5 11.5,18.7 9.7,18.7 C7.6,18.7 4.7,17.9 4.7,11.6 C4.7,5.2 7.7,4.4 10.5,4.4 C12.9,4.4 14,4.8 14.7,5 C14.9,5.1 15.1,4.9 15.1,4.7 L15.9,1.3 C15.9,1.2 15.9,1.1 15.8,1 C15.7,0.9 14,0 9.8,0 C5,0 0,2.1 0,12 C0,21.9 5.7,23.4 10.5,23.4 C14.5,23.4 16.9,21.7 16.9,21.7 C17,21.6 17,21.5 17,21.4 L17,10.3 C17,10.1 16.8,10 16.6,10 Z M54.3,1.2 C54.3,1 54.2,0.9 54,0.9 L49.9,0.9 C49.7,0.9 49.6,1.1 49.6,1.2 C49.6,1.2 49.6,9.1 49.6,9.1 L43.2,9.1 L43.2,1.2 C43.2,1 43,0.9 42.9,0.9 L38.8,0.9 C38.6,0.9 38.5,1.1 38.5,1.2 L38.5,22.6 C38.5,22.8 38.7,22.9 38.8,22.9 L42.9,22.9 C43.1,22.9 43.2,22.7 43.2,22.6 L43.2,13.5 L49.6,13.5 C49.6,13.5 49.6,22.6 49.6,22.6 C49.6,22.8 49.8,22.9 49.9,22.9 L54,22.9 C54.2,22.9 54.3,22.7 54.3,22.6 L54.3,1.2 Z M24.5,4 C24.5,2.5 23.3,1.3 21.9,1.3 C20.4,1.3 19.3,2.5 19.3,4 C19.3,5.5 20.5,6.7 21.9,6.7 C23.3,6.7 24.5,5.5 24.5,4 Z M24.2,18.1 C24.2,17.6 24.2,8.2 24.2,8.2 C24.2,8 24,7.9 23.9,7.9 L19.8,7.9 C19.6,7.9 19.4,8.1 19.4,8.3 C19.4,8.3 19.4,20.2 19.4,22.4 C19.4,22.8 19.7,22.9 20,22.9 C20,22.9 21.7,22.9 23.7,22.9 C24.1,22.9 24.2,22.7 24.2,22.4 C24.2,21.6 24.2,18.6 24.2,18.1 Z M70.2,7.9 L66.1,7.9 C65.9,7.9 65.8,8.1 65.8,8.2 L65.8,18.7 C65.8,18.7 64.8,19.5 63.3,19.5 C61.8,19.5 61.5,18.8 61.5,17.4 C61.5,16 61.5,8.3 61.5,8.3 C61.5,8.1 61.3,8 61.2,8 L57,8 C56.8,8 56.7,8.2 56.7,8.3 C56.7,8.3 56.7,13.9 56.7,18.1 C56.7,22.4 59.1,23.4 62.3,23.4 C65,23.4 67.1,21.9 67.1,21.9 C67.1,21.9 67.2,22.7 67.2,22.8 C67.2,22.9 67.4,23 67.5,23 L70.1,23 C70.3,23 70.4,22.8 70.4,22.7 L70.4,8.3 C70.5,8 70.4,7.9 70.2,7.9 Z M81.5,7.4 C79.2,7.4 77.6,8.4 77.6,8.4 L77.6,1.2 C77.6,1 77.4,0.9 77.3,0.9 L73.2,0.9 C73,0.9 72.9,1.1 72.9,1.2 L72.9,22.6 C72.9,22.8 73.1,22.9 73.2,22.9 C73.2,22.9 76,22.9 76,22.9 C76.1,22.9 76.2,22.8 76.3,22.7 C76.4,22.6 76.5,21.7 76.5,21.7 C76.5,21.7 78.2,23.3 81.3,23.3 C85,23.3 87.2,21.4 87.2,14.8 C87.2,8.3 83.8,7.4 81.5,7.4 Z M79.9,19.4 C78.5,19.4 77.5,18.7 77.5,18.7 L77.5,12 C77.5,12 78.4,11.4 79.6,11.3 C81.1,11.2 82.5,11.6 82.5,15.1 C82.5,18.8 81.8,19.5 79.9,19.4 Z M35.9,7.8 L32.8,7.8 C32.8,7.8 32.8,3.8 32.8,3.8 C32.8,3.6 32.7,3.6 32.5,3.6 L28.3,3.6 C28.1,3.6 28.1,3.7 28.1,3.8 L28.1,8 C28.1,8 26,8.5 25.9,8.5 C25.8,8.5 25.7,8.7 25.7,8.8 L25.7,11.4 C25.7,11.6 25.9,11.7 26,11.7 L28.1,11.7 C28.1,11.7 28.1,14.4 28.1,18 C28.1,22.7 31.4,23.2 33.6,23.2 C34.6,23.2 35.8,22.9 36,22.8 C36.1,22.8 36.2,22.6 36.2,22.5 L36.2,19.6 C36.2,19.4 36,19.3 35.9,19.3 C35.7,19.3 35.3,19.4 34.8,19.4 C33.3,19.4 32.8,18.7 32.8,17.8 C32.8,16.9 32.8,11.8 32.8,11.8 L35.9,11.8 C36.1,11.8 36.2,11.6 36.2,11.5 L36.2,8.2 C36.2,8 36,7.8 35.9,7.8 Z" id="Shape"></path>
        </g>
    </g>
</svg>