<?xml version="1.0" encoding="UTF-8"?>
<svg width="199px" height="59px" viewBox="0 0 199 59" version="1.1" xmlns="http://www.w3.org/2000/svg" xmlns:xlink="http://www.w3.org/1999/xlink">
    <!-- Generator: Sketch 51.3 (57544) - http://www.bohemiancoding.com/sketch -->
    <title>intuit-seeklogo.com</title>
    <desc>Created with Sketch.</desc>
    <defs>
        <polygon id="path-1" points="0.155 0.181 35.578 0.181 35.578 40.94 0.155 40.94"></polygon>
    </defs>
    <g id="intuit-seeklogo.com" stroke="none" stroke-width="1" fill="none" fill-rule="evenodd">
        <g id="Group-3" transform="translate(100.000000, 18.000000)">
            <mask id="mask-2" fill="white">
                <use xlink:href="#path-1"></use>
            </mask>
            <g id="Clip-2"></g>
            <path d="M33.445,40.014 L28.196,40.014 C27.13,40.014 26.312,39.441 26.232,38.377 L26.148,36.325 C22.374,39.363 17.864,41 13.108,41 C3.925,41 0.155,35.182 0.155,26.322 L0.155,2.069 C0.155,0.674 0.974,0.181 2.282,0.181 L8.025,0.181 C9.338,0.181 10.077,0.589 10.077,2.069 L10.077,24.599 C10.077,29.111 11.224,32.225 16.146,32.225 C19.257,32.225 23.196,30.505 25.656,28.291 L25.656,2.069 C25.656,0.674 26.395,0.181 27.703,0.181 L33.525,0.181 C34.839,0.181 35.578,0.589 35.578,2.069 L35.578,37.72 C35.578,39.441 35.083,40.014 33.445,40.014" id="Fill-1" fill="#4E7AB0" mask="url(#mask-2)"></path>
        </g>
        <path d="M0,19.817 C0,18.836 0.493,18.179 1.475,18.179 L8.412,18.179 C9.396,18.179 9.969,18.753 9.969,19.817 L9.969,55.965 C9.969,57.441 9.311,58.014 7.919,58.014 L2.133,58.014 C0.661,58.014 0,57.441 0,55.965 L0,19.817" id="Fill-4" fill="#4E7AB0"></path>
        <path d="M145.838,19.817 C145.838,18.836 146.334,18.179 147.315,18.179 L154.251,18.179 C155.237,18.179 155.81,18.753 155.81,19.817 L155.81,55.965 C155.81,57.441 155.153,58.014 153.758,58.014 L147.971,58.014 C146.499,58.014 145.838,57.441 145.838,55.965 L145.838,19.817" id="Fill-5" fill="#4E7AB0"></path>
        <path d="M53.924,58.014 L48.021,58.014 C46.545,58.014 46.054,57.277 46.054,55.882 L46.054,33.577 C46.054,29.07 44.826,25.871 39.821,25.871 C36.622,25.871 32.688,27.596 30.146,29.807 L30.146,55.965 C30.146,57.363 29.572,58.014 28.181,58.014 L22.192,58.014 C20.962,58.014 20.223,57.363 20.223,56.047 L20.223,20.239 C20.223,18.926 20.801,18.189 22.275,18.189 L27.603,18.189 C28.75,18.189 29.493,18.516 29.572,19.746 L29.653,21.934 C33.427,18.903 38.184,17.182 42.94,17.182 C52.124,17.182 55.894,22.921 55.894,31.859 L55.894,55.882 C55.894,57.277 55.403,58.014 53.924,58.014" id="Fill-6" fill="#4E7AB0"></path>
        <path d="M83.149,6.99 C83.149,3.669 80.458,0.975 77.135,0.975 C73.815,0.975 71.12,3.669 71.12,6.99 C71.12,10.312 73.815,13.002 77.135,13.002 C80.458,13.002 83.149,10.312 83.149,6.99" id="Fill-7" fill="#4E7AB0"></path>
        <path d="M91.706,18.179 C92.69,18.179 93.264,18.506 93.264,19.573 L93.264,25.348 C93.264,26.331 92.609,26.906 91.623,26.906 L82.12,26.906 L82.12,55.965 C82.12,57.441 81.465,58.014 79.987,58.014 L74.282,58.014 C72.805,58.014 72.151,57.441 72.151,55.965 L72.151,26.906 L62.645,26.906 C61.662,26.906 61.006,26.331 61.006,25.348 L61.006,19.573 C61.006,18.506 61.579,18.179 62.564,18.179 L91.706,18.179" id="Fill-8" fill="#4E7AB0"></path>
        <path d="M184.905,6.99 C184.905,3.669 182.212,0.975 178.89,0.975 C175.569,0.975 172.876,3.669 172.876,6.99 C172.876,10.312 175.569,13.002 178.89,13.002 C182.212,13.002 184.905,10.312 184.905,6.99" id="Fill-9" fill="#4E7AB0"></path>
        <path d="M193.462,18.179 C194.444,18.179 195.017,18.506 195.017,19.573 L195.017,25.348 C195.017,26.331 194.363,26.906 193.377,26.906 L183.874,26.906 L183.874,55.965 C183.874,57.441 183.22,58.014 181.743,58.014 L176.035,58.014 C174.559,58.014 173.905,57.441 173.905,55.965 L173.903,26.906 L164.402,26.906 C163.416,26.906 162.76,26.331 162.76,25.348 L162.76,19.573 C162.76,18.506 163.336,18.179 164.316,18.179 L193.462,18.179" id="Fill-10" fill="#4E7AB0"></path>
        <path d="M195.506,55.438 L196.011,55.438 C196.438,55.438 196.827,55.418 196.827,54.928 C196.827,54.515 196.474,54.452 196.146,54.452 L195.506,54.452 L195.506,55.438 Z M195.024,54.061 L196.222,54.061 C196.962,54.061 197.311,54.352 197.311,54.95 C197.311,55.508 196.958,55.745 196.494,55.794 L197.383,57.165 L196.863,57.165 L196.019,55.828 L195.506,55.828 L195.506,57.165 L195.024,57.165 L195.024,54.061 Z M196.061,57.882 C197.291,57.882 198.241,56.903 198.241,55.602 C198.241,54.332 197.291,53.35 196.061,53.35 C194.818,53.35 193.866,54.332 193.866,55.602 C193.866,56.903 194.818,57.882 196.061,57.882 Z M196.061,52.96 C197.51,52.96 198.723,54.103 198.723,55.602 C198.723,57.127 197.51,58.272 196.061,58.272 C194.605,58.272 193.384,57.127 193.384,55.602 C193.384,54.103 194.605,52.96 196.061,52.96 Z" id="Fill-11" fill="#4E7AB0"></path>
    </g>
</svg>