<?xml version="1.0" encoding="UTF-8"?>
<svg width="365px" height="113px" viewBox="0 0 365 113" version="1.1" xmlns="http://www.w3.org/2000/svg" xmlns:xlink="http://www.w3.org/1999/xlink">
    <!-- Generator: Sketch 51.3 (57544) - http://www.bohemiancoding.com/sketch -->
    <title>jenkins-seeklogo.com</title>
    <desc>Created with Sketch.</desc>
    <defs>
        <polygon id="path-1" points="0.466634475 0.523 72.2872045 0.523 72.2872045 112.94 0.466634475 112.94"></polygon>
    </defs>
    <g id="jenkins-seeklogo.com" stroke="none" stroke-width="1" fill="none" fill-rule="evenodd">
        <g id="Group-4" transform="translate(0.000000, 14.000000)">
            <path d="M80.122,40.723 C80.122,63.007 62.46,81.072 40.674,81.072 C18.887,81.072 1.226,63.007 1.226,40.723 C1.226,18.438 18.887,0.372 40.674,0.372 C62.46,0.372 80.122,18.438 80.122,40.723" id="Fill-1" fill="#C13735"></path>
            <path d="M2.833,50.716 C2.833,50.716 -0.023,8.638 38.75,7.436 L36.045,2.927 L15.006,9.991 L8.995,16.903 L3.735,26.972 L0.729,38.694 L1.631,46.508" id="Fill-3" fill="#DC3C3B"></path>
        </g>
        <path d="M11.903,84.26 C4.547,76.738 0,66.341 0,54.873 C0,43.404 4.547,33.008 11.903,25.485 C19.257,17.961 29.437,13.297 40.673,13.298 C51.909,13.297 62.09,17.961 69.443,25.485 C76.799,33.008 81.347,43.405 81.346,54.873 C81.347,66.341 76.799,76.738 69.443,84.26 C62.09,91.784 51.909,96.448 40.673,96.448 C29.437,96.448 19.257,91.784 11.903,84.26 M13.655,27.197 C6.734,34.279 2.451,44.056 2.451,54.873 C2.451,65.688 6.734,75.467 13.655,82.548 C20.58,89.628 30.123,93.997 40.673,93.997 C51.224,93.997 60.768,89.628 67.691,82.548 C74.612,75.467 78.896,65.688 78.896,54.873 C78.896,44.056 74.612,34.279 67.691,27.197 C60.768,20.118 51.224,15.749 40.673,15.748 C30.123,15.749 20.58,20.118 13.655,27.197" id="Fill-5" fill="#1B1A19"></path>
        <polyline id="Fill-6" fill="#EDD3B1" points="57.279 54.946 51.268 55.848 43.153 56.75 37.893 56.9 32.783 56.75 28.876 55.547 25.419 51.791 22.714 44.126 22.113 42.473 18.507 41.271 16.403 37.815 14.9 32.855 16.553 28.497 20.46 27.145 23.616 28.648 25.119 31.954 26.923 31.653 27.523 30.902 26.923 27.445 26.772 23.087 27.674 17.076 27.638 13.642 30.379 9.262 35.188 5.805 43.604 2.198 52.921 3.551 61.036 9.412 64.793 15.423 67.197 19.781 67.798 30.601 65.995 39.919 62.689 48.184 59.533 52.542"></polyline>
        <polyline id="Fill-7" fill="#314853" points="52.17 80.944 30.679 81.846 30.679 85.453 32.483 98.076 31.581 99.129 16.553 94.019 15.501 92.215 13.998 75.234 10.542 65.015 9.791 62.611 21.813 54.345 25.57 52.842 28.876 56.9 31.731 59.455 35.038 60.507 36.54 60.957 38.344 68.772 39.696 70.425 43.153 69.223 40.748 73.882 53.822 80.043 52.17 80.944"></polyline>
        <polyline id="Fill-8" fill="#666563" points="16.553 28.497 20.46 27.145 23.616 28.648 25.119 31.954 26.923 31.653 27.373 29.85 26.472 26.394 27.373 18.128 26.622 13.619 29.327 10.464 35.188 5.805 33.535 3.551 25.269 7.608 21.813 10.313 19.859 14.521 16.854 18.579 15.952 23.388 16.553 28.497"></polyline>
        <path d="M22.714,14.371 C22.714,14.371 24.969,8.811 33.985,6.106 C43.002,3.401 34.436,4.152 34.436,4.152 L24.668,7.909 L20.911,11.666 L19.258,14.672 L22.714,14.371" id="Fill-9" fill="#D8D5CF"></path>
        <path d="M18.206,27.445 C18.206,27.445 15.05,16.925 27.073,15.423 L26.622,13.619 L18.357,15.573 L15.952,23.388 L16.553,28.497 L18.206,27.445" id="Fill-10" fill="#D8D5CF"></path>
        <path d="M23.015,41.421 L24.983,39.515 C24.983,39.515 25.871,39.618 26.021,40.67 C26.171,41.722 26.622,51.19 33.084,56.299 C33.673,56.765 28.275,55.547 28.275,55.547 L23.466,48.034" id="Fill-11" fill="#F6E2C7"></path>
        <path d="M50.667,38.566 C50.667,38.566 51.018,34.011 52.244,34.361 C53.471,34.711 53.471,35.938 53.471,35.938 C53.471,35.938 50.492,37.866 50.667,38.566" id="Fill-12" fill="#F6E2C7"></path>
        <path d="M63.14,21.885 C63.14,21.885 60.663,22.408 60.435,24.59 C60.207,26.773 63.14,25.041 63.591,24.891" id="Fill-13" fill="#F6E2C7"></path>
        <path d="M44.956,22.036 C44.956,22.036 41.65,22.487 41.65,24.59 C41.65,26.694 45.407,26.544 46.459,25.642" id="Fill-14" fill="#F6E2C7"></path>
        <g id="Group-18" transform="translate(14.000000, 0.000000)" fill="#F6E2C7">
            <path d="M10.518,31.804 C10.518,31.804 4.807,28.347 4.206,31.653 C3.605,34.959 2.252,37.364 5.108,40.82 L3.154,40.219 L1.351,35.561 L0.75,31.052 L4.206,27.445 L8.113,27.746 L10.368,29.549 L10.518,31.804" id="Fill-15"></path>
            <path d="M13.223,22.336 C13.223,22.336 15.778,9.112 28.702,6.557 C39.342,4.453 44.932,7.007 47.036,9.412 C47.036,9.412 37.568,-1.859 28.551,1.597 C19.535,5.054 12.923,11.366 13.073,15.423 C13.329,22.333 13.223,22.336 13.223,22.336" id="Fill-17"></path>
        </g>
        <path d="M62.088,10.914 C62.088,10.914 57.73,10.764 57.58,14.672 C57.58,14.672 57.579,15.273 57.88,15.874 C57.88,15.874 61.337,11.966 63.44,14.07" id="Fill-19" fill="#F6E2C7"></path>
        <path d="M43.005,16.281 C43.005,16.281 42.255,10.283 37.141,13.77 C33.835,16.024 34.136,19.18 34.737,19.781 C35.338,20.383 35.174,21.593 35.632,20.762 C36.089,19.931 35.939,17.226 37.592,16.475 C39.245,15.724 41.955,14.884 43.005,16.281" id="Fill-20" fill="#F6E2C7"></path>
        <path d="M28.876,56.9 L14.75,63.212 C14.75,63.212 20.611,86.505 17.605,93.718 L15.501,92.967 L15.351,84.101 L11.444,67.27 L9.791,62.611 L24.518,52.693 L28.876,56.9" id="Fill-21" fill="#496A7D"></path>
        <path d="M30.329,69.783 L32.333,72.229 L32.333,81.246 L29.928,81.246 C29.928,81.246 29.628,74.934 29.628,74.182 C29.628,73.431 29.928,70.726 29.928,70.726" id="Fill-22" fill="#496A7D"></path>
        <polyline id="Fill-23" fill="#496A7D" points="30.379 82.598 23.616 82.898 25.57 84.251 30.379 85.002"></polyline>
        <polyline id="Fill-24" fill="#314853" points="53.522 81.095 59.082 80.945 60.435 94.771 54.724 95.522 53.522 81.095"></polyline>
        <path d="M55.025,81.095 L63.44,80.644 C63.44,80.644 66.897,71.928 66.897,71.477 C66.897,71.026 69.902,58.854 69.902,58.854 L63.14,51.791 L61.787,50.589 L58.181,54.195 L58.181,68.171 L55.025,81.095" id="Fill-25" fill="#314853"></path>
        <path d="M58.782,80.043 L53.522,81.095 L54.273,85.303 C56.227,86.205 59.533,83.8 59.533,83.8" id="Fill-26" fill="#496A7D"></path>
        <polyline id="Fill-27" fill="#496A7D" points="58.932 53.745 69.451 61.559 69.752 57.952 61.787 50.589 58.932 53.745"></polyline>
        <polyline id="Fill-28" fill="#FFFFFE" points="35.594 110.701 32.483 98.076 30.935 88.761 30.679 81.846 44.761 81.096 53.522 81.095 52.725 96.876 54.078 109.048 53.928 111.303 42.507 112.204 35.594 110.701"></polyline>
        <path d="M51.568,80.945 C51.568,80.945 50.817,96.574 53.071,107.694 C53.071,107.694 48.563,110.55 41.95,111.301 L54.574,110.85 L56.077,109.949 L54.273,85.303 L53.822,80.043" id="Fill-29" fill="#D8D5CF"></path>
        <polyline id="Fill-30" fill="#FFFFFE" points="60.691 93.57 66.552 91.917 77.672 91.316 79.325 86.206 76.32 77.34 72.863 76.889 68.054 78.391 63.44 80.644 60.991 80.195 59.082 80.945"></polyline>
        <path d="M60.585,90.563 C60.585,90.563 64.492,88.76 65.093,88.91 L63.44,80.644 L65.394,79.893 C65.394,79.893 66.746,87.707 66.746,88.609 C66.746,88.609 75.162,89.06 75.913,89.06 C75.913,89.06 77.717,85.603 77.266,81.997 L78.919,86.806 L79.069,89.511 L76.665,93.117 L73.96,93.718 L69.451,93.568 L67.949,91.615 L62.689,92.366 L61.036,92.967" id="Fill-31" fill="#D8D5CF"></path>
        <path d="M54.679,79.894 L51.373,71.479 L47.917,66.519 C47.917,66.519 48.668,64.415 49.72,64.415 C50.772,64.415 53.177,64.415 53.177,64.415 L56.483,65.618 L56.183,71.178 L54.679,79.894" id="Fill-32" fill="#FFFFFE"></path>
        <path d="M55.325,77.037 C55.325,77.037 51.117,68.923 51.117,67.72 C51.117,67.72 51.868,65.917 52.921,66.368 C53.973,66.819 56.227,68.021 56.227,68.021 L56.227,65.166 L51.117,64.113 L47.661,64.564 L53.522,78.39 L54.724,78.541" id="Fill-33" fill="#D8D5CF"></path>
        <polyline id="Fill-34" fill="#FFFFFE" points="36.947 57.202 32.783 56.75 28.876 55.547 28.876 56.9 30.785 59.005 36.796 61.71"></polyline>
        <path d="M30.229,57.653 C30.229,57.653 34.888,59.607 36.391,59.156 L36.54,60.957 L32.333,60.058 L29.778,58.254 L30.229,57.653" id="Fill-35" fill="#D8D5CF"></path>
        <path d="M60.675,64.927 C58.125,64.852 55.821,64.549 53.804,63.98 C53.941,63.153 53.684,62.342 53.89,61.746 C54.453,61.342 55.395,61.348 56.245,61.253 C55.51,60.892 54.477,60.749 53.629,60.957 C53.61,60.384 53.352,60.028 53.196,59.579 C54.63,59.067 58.014,55.712 59.918,56.823 C60.825,57.352 61.211,60.37 61.281,61.837 C61.34,63.054 61.171,64.282 60.675,64.927" id="Fill-36" fill="#C13735"></path>
        <path d="M60.675,64.927 L60.685,64.567 C58.157,64.492 55.882,64.192 53.902,63.633 L53.804,63.98 L54.16,64.039 C54.196,63.821 54.207,63.609 54.207,63.407 C54.206,63.015 54.167,62.658 54.167,62.365 C54.167,62.162 54.186,61.993 54.231,61.864 L53.89,61.746 L54.101,62.039 C54.301,61.892 54.624,61.796 55.012,61.74 C55.4,61.683 55.845,61.66 56.285,61.611 L57.512,61.474 L56.404,60.929 C55.842,60.654 55.155,60.501 54.473,60.5 C54.158,60.5 53.843,60.533 53.543,60.607 L53.629,60.957 L53.99,60.945 C53.979,60.606 53.894,60.325 53.799,60.088 C53.704,59.85 53.604,59.654 53.537,59.46 L53.196,59.579 L53.317,59.918 C53.686,59.785 54.092,59.533 54.555,59.229 C55.245,58.772 56.046,58.196 56.843,57.739 C57.637,57.279 58.43,56.955 59.037,56.96 C59.303,56.96 59.53,57.015 59.736,57.135 L59.737,57.135 C59.79,57.165 59.864,57.232 59.941,57.34 C60.077,57.528 60.216,57.833 60.334,58.198 C60.693,59.296 60.877,60.917 60.921,61.854 C60.928,62.001 60.931,62.148 60.931,62.294 C60.932,62.802 60.887,63.296 60.794,63.719 C60.702,64.141 60.558,64.489 60.389,64.707 L60.675,64.927 L60.685,64.567 L60.675,64.927 L60.96,65.147 C61.225,64.801 61.39,64.362 61.498,63.873 C61.606,63.385 61.653,62.844 61.653,62.294 C61.653,62.136 61.649,61.978 61.641,61.82 C61.605,61.067 61.49,59.934 61.266,58.901 C61.153,58.384 61.014,57.893 60.835,57.48 C60.745,57.273 60.645,57.085 60.527,56.92 C60.409,56.756 60.273,56.613 60.1,56.512 C59.771,56.319 59.404,56.238 59.037,56.238 C58.474,56.24 57.902,56.418 57.333,56.674 C56.48,57.06 55.628,57.632 54.873,58.144 C54.496,58.4 54.144,58.641 53.835,58.835 C53.528,59.029 53.259,59.174 53.075,59.239 L52.738,59.359 L52.855,59.697 C52.945,59.952 53.051,60.159 53.129,60.355 C53.207,60.552 53.26,60.735 53.269,60.97 L53.284,61.414 L53.716,61.308 C53.951,61.25 54.209,61.221 54.473,61.221 C55.044,61.22 55.642,61.357 56.086,61.576 L56.245,61.253 L56.205,60.894 C55.795,60.941 55.343,60.962 54.907,61.027 C54.471,61.093 54.042,61.196 53.68,61.454 L53.587,61.52 L53.55,61.628 C53.465,61.874 53.446,62.121 53.446,62.365 C53.447,62.716 53.486,63.066 53.486,63.407 C53.486,63.582 53.476,63.754 53.448,63.921 L53.395,64.24 L53.706,64.327 C55.76,64.907 58.092,65.212 60.664,65.288 L60.848,65.293 L60.96,65.147 L60.675,64.927" id="Fill-37" fill="#C13735"></path>
        <path d="M48.481,60.759 C48.474,60.952 48.466,61.146 48.458,61.341 C47.662,61.864 46.377,61.857 45.503,62.297 C46.791,62.353 47.805,62.663 48.682,63.101 C48.663,63.587 48.645,64.072 48.626,64.558 C47.166,65.557 45.833,67.045 44.115,67.982 C43.302,68.425 40.451,69.565 39.587,69.364 C39.098,69.25 39.054,68.643 38.858,68.071 C38.442,66.846 37.483,64.896 37.399,63.052 C37.293,60.723 37.058,56.82 39.568,57.3 C41.592,57.686 43.947,58.619 45.515,59.476 C46.473,59.999 47.027,60.647 48.481,60.759" id="Fill-38" fill="#C13735"></path>
        <path d="M48.481,60.759 L48.12,60.746 C48.114,60.937 48.106,61.131 48.098,61.326 L48.458,61.341 L48.26,61.039 C47.939,61.253 47.456,61.382 46.931,61.498 C46.406,61.617 45.842,61.725 45.341,61.975 L44.105,62.597 L45.487,62.657 C46.726,62.712 47.682,63.006 48.521,63.424 L48.682,63.101 L48.322,63.086 C48.303,63.573 48.284,64.058 48.265,64.544 L48.626,64.558 L48.422,64.261 C47.666,64.779 46.961,65.408 46.235,66.017 C45.51,66.627 44.765,67.217 43.942,67.665 C43.601,67.852 42.798,68.204 41.97,68.498 C41.556,68.645 41.132,68.78 40.755,68.875 C40.378,68.972 40.042,69.028 39.83,69.027 C39.757,69.027 39.701,69.02 39.669,69.012 C39.615,68.998 39.593,68.984 39.559,68.949 C39.508,68.897 39.445,68.772 39.39,68.593 C39.333,68.415 39.28,68.191 39.2,67.955 C38.983,67.32 38.642,66.532 38.345,65.676 C38.048,64.821 37.798,63.902 37.76,63.036 C37.734,62.47 37.701,61.819 37.701,61.166 C37.699,60.224 37.774,59.275 38.012,58.613 C38.13,58.282 38.285,58.03 38.467,57.869 C38.65,57.71 38.855,57.623 39.165,57.62 C39.266,57.62 39.377,57.631 39.5,57.654 C41.472,58.029 43.811,58.954 45.342,59.792 C45.791,60.036 46.167,60.327 46.639,60.588 C47.11,60.848 47.677,61.06 48.453,61.118 L48.481,60.759 L48.12,60.746 L48.481,60.759 L48.508,60.399 C47.831,60.345 47.395,60.178 46.986,59.955 C46.578,59.733 46.197,59.439 45.688,59.159 C44.084,58.284 41.713,57.344 39.635,56.946 C39.473,56.914 39.316,56.899 39.165,56.899 C38.702,56.896 38.292,57.057 37.988,57.33 C37.531,57.741 37.297,58.345 37.157,59.012 C37.018,59.683 36.98,60.432 36.979,61.166 C36.979,61.843 37.013,62.506 37.039,63.069 C37.084,64.047 37.356,65.025 37.663,65.912 C37.971,66.798 38.317,67.598 38.517,68.187 L38.517,68.188 C38.606,68.446 38.664,68.74 38.778,69.025 C38.837,69.168 38.911,69.311 39.03,69.44 C39.147,69.568 39.314,69.672 39.505,69.715 C39.611,69.739 39.718,69.748 39.83,69.748 C40.151,69.747 40.522,69.678 40.932,69.575 C41.544,69.419 42.232,69.181 42.843,68.942 C43.454,68.702 43.982,68.465 44.288,68.299 C45.183,67.81 45.964,67.188 46.699,66.57 C47.435,65.951 48.126,65.337 48.829,64.856 L48.979,64.753 L48.986,64.572 C49.005,64.086 49.023,63.601 49.043,63.115 L49.052,62.882 L48.843,62.778 C47.928,62.321 46.856,61.994 45.519,61.937 L45.503,62.297 L45.665,62.619 C46.038,62.43 46.553,62.32 47.089,62.202 C47.624,62.08 48.181,61.951 48.656,61.642 L48.811,61.54 L48.819,61.355 C48.826,61.161 48.834,60.966 48.841,60.771 L48.853,60.425 L48.508,60.399 L48.481,60.759" id="Fill-39" fill="#C13735"></path>
        <path d="M49.93,63.538 C49.708,62.269 49.45,61.907 49.55,60.8 C52.933,58.544 53.568,64.675 49.93,63.538" id="Fill-40" fill="#C13735"></path>
        <path d="M49.93,63.538 L50.285,63.475 C50.189,62.923 50.084,62.535 50.01,62.207 C49.935,61.878 49.889,61.615 49.888,61.26 C49.888,61.132 49.895,60.991 49.909,60.832 L49.55,60.8 L49.75,61.1 C50.242,60.772 50.641,60.657 50.939,60.658 C51.12,60.658 51.267,60.697 51.396,60.763 C51.588,60.862 51.744,61.029 51.855,61.246 C51.965,61.462 52.027,61.726 52.026,61.989 C52.027,62.341 51.918,62.683 51.718,62.92 C51.516,63.157 51.235,63.315 50.777,63.319 C50.568,63.319 50.322,63.282 50.038,63.193 L49.93,63.538 L50.285,63.475 L49.93,63.538 L49.823,63.882 C50.166,63.989 50.484,64.04 50.777,64.04 C51.42,64.044 51.944,63.78 52.271,63.383 C52.601,62.987 52.747,62.483 52.747,61.989 C52.747,61.495 52.602,60.999 52.3,60.606 C52.149,60.41 51.957,60.241 51.726,60.122 C51.496,60.003 51.228,59.936 50.939,59.936 C50.456,59.937 49.924,60.117 49.35,60.5 L49.206,60.596 L49.191,60.768 C49.174,60.946 49.167,61.108 49.167,61.26 C49.167,61.682 49.227,62.021 49.306,62.367 C49.386,62.715 49.483,63.077 49.575,63.6 L49.613,63.816 L49.823,63.882 L49.93,63.538" id="Fill-41" fill="#C13735"></path>
        <path d="M54.829,64.566 C54.829,64.566 53.777,63.063 54.529,62.612 C55.28,62.161 56.032,62.612 56.483,61.861 C56.934,61.109 56.483,60.659 56.633,59.757 C56.783,58.855 57.535,58.705 58.286,58.554 C59.037,58.404 61.142,58.104 61.442,58.855 L60.54,56.15 L58.737,55.549 L53.026,58.855 L52.725,60.508 L52.725,63.814" id="Fill-42" fill="#DC3C3B"></path>
        <path d="M39.05,69.525 C38.87,67.18 38.679,64.838 38.466,62.495 C38.148,58.996 39.307,59.607 42.339,59.607 C42.802,59.607 45.191,60.159 45.362,60.508 C46.182,62.182 43.991,61.81 46.306,63.073 C48.26,64.138 51.712,62.426 50.922,60.058 C50.48,59.531 48.62,59.893 47.953,59.548 C46.779,58.939 45.605,58.33 44.431,57.722 C42.938,56.947 39.485,55.817 37.893,56.9 C33.858,59.644 38.147,66.501 39.587,69.364" id="Fill-43" fill="#DC3C3B"></path>
        <path d="M43.005,16.281 C38.909,15.327 36.874,17.995 35.632,20.762 C34.523,20.493 34.965,18.986 35.245,18.217 C35.978,16.201 38.932,13.518 41.346,13.881 C42.385,14.038 43.791,14.988 43.005,16.281" id="Fill-44" fill="#1B1A19"></path>
        <path d="M62.962,20.945 C63.026,20.948 63.092,20.95 63.156,20.953 C64.082,22.876 64.883,24.912 66.05,26.61 C65.268,28.432 60.127,30.044 60.207,26.773 C61.318,26.287 63.238,26.673 64.223,26.053 C63.653,24.489 62.831,23.157 62.962,20.945" id="Fill-45" fill="#1B1A19"></path>
        <path d="M45.102,20.995 C45.98,22.605 46.266,24.297 47.514,25.513 C48.076,26.061 49.17,26.729 48.628,28.252 C48.501,28.612 47.576,29.413 47.041,29.57 C45.09,30.146 40.542,29.689 42.082,27.256 C43.696,27.331 45.866,28.304 47.072,27.132 C46.145,25.651 44.494,22.721 45.102,20.995" id="Fill-46" fill="#1B1A19"></path>
        <path d="M62.229,37.358 C59.291,39.245 56.014,41.298 51.199,40.822 C50.17,39.928 49.778,37.937 50.777,36.622 C51.298,37.517 50.971,39.162 52.421,39.41 C55.153,39.877 58.332,37.738 60.298,36.991 C61.516,34.936 60.193,34.181 59.095,32.859 C56.847,30.149 53.833,26.792 53.942,22.736 C54.851,22.077 54.929,23.741 55.059,24.044 C56.233,26.791 59.186,30.303 61.342,32.654 C61.871,33.233 62.743,33.788 62.84,34.171 C63.119,35.284 62.112,36.618 62.229,37.358" id="Fill-47" fill="#1B1A19"></path>
        <path d="M23.489,35.371 C22.568,34.845 22.349,32.529 21.268,32.464 C19.722,32.37 20.004,35.467 20.01,37.279 C18.947,36.313 18.76,33.34 19.541,31.813 C18.65,31.376 18.253,32.295 17.759,32.62 C18.394,28.008 24.506,30.48 23.489,35.371" id="Fill-48" fill="#1B1A19"></path>
        <path d="M64.1,39.278 C62.732,41.882 60.797,44.749 56.783,44.833 C56.702,43.992 56.639,42.713 56.788,42.206 C59.856,41.911 61.751,40.35 64.1,39.278" id="Fill-49" fill="#1B1A19"></path>
        <path d="M44.87,40.966 C47.43,42.313 52.135,42.457 55.615,42.355 C55.801,43.118 55.797,44.06 55.804,44.989 C51.331,45.212 46.043,44.105 44.87,40.966" id="Fill-50" fill="#1B1A19"></path>
        <path d="M44.384,43.477 C46.154,47.921 52.239,47.41 57.37,47.287 C57.144,47.864 56.654,48.546 56.045,48.793 C54.401,49.461 49.866,49.969 47.584,48.757 C46.136,47.987 45.206,46.248 44.413,45.229 C44.03,44.737 42.122,43.479 44.384,43.477" id="Fill-51" fill="#1B1A19"></path>
        <path d="M62.015,67.994 C59.938,71.553 57.95,75.207 55.485,78.345 C56.519,75.307 56.961,70.222 57.117,66.345 C59.279,65.334 61.13,66.573 62.015,67.994" id="Fill-52" fill="#7FA8B5"></path>
        <path d="M73.194,80.783 C70.868,81.248 69.234,83.509 66.965,83.364 C68.212,81.606 70.397,80.865 73.194,80.783" id="Fill-53" fill="#1B1A19"></path>
        <path d="M74.22,84.423 C72.325,84.623 70.098,84.93 68.175,84.772 C69.086,83.381 72.593,83.861 74.22,84.423" id="Fill-54" fill="#1B1A19"></path>
        <path d="M74.877,87.561 C72.747,87.607 70.099,87.564 68.073,87.395 C69.271,86.108 73.496,86.917 74.877,87.561" id="Fill-55" fill="#1B1A19"></path>
        <path d="M58.007,96.149 C58.312,98.825 59.373,101.536 59.24,104.466 C58.062,104.864 57.385,105.211 55.807,105.209 C55.696,102.718 55.362,98.911 55.462,96.537 C56.238,96.588 57.383,95.983 58.007,96.149" id="Fill-56" fill="#D8D5CF"></path>
        <path d="M54.572,56.713 C53.502,57.412 52.591,58.284 51.563,59.029 C49.285,59.142 48.041,58.871 46.367,57.563 C46.395,57.458 46.563,57.505 46.569,57.376 C49.008,58.463 52.109,56.933 54.572,56.713" id="Fill-57" fill="#EDD3B1"></path>
        <g id="Group-61" transform="translate(8.000000, 0.000000)">
            <mask id="mask-2" fill="white">
                <use xlink:href="#path-1"></use>
            </mask>
            <g id="Clip-59"></g>
            <path d="M33.768,73.339 C34.438,70.435 37.064,68.931 39.448,67.332 C41.909,70.456 43.406,74.473 45.054,78.349 C41.16,77.175 37.181,75.27 33.768,73.339" id="Fill-58" fill="#7FA8B5" mask="url(#mask-2)"></path>
            <path d="M57.121,78.233 C60.767,76.42 67.579,73.354 69.865,78.239 C70.708,80.04 71.698,83.084 72.135,84.943 C72.752,87.565 71.466,93.077 68.77,93.957 C66.389,94.735 63.611,94.687 60.743,94.111 C60.406,93.83 60.03,93.341 59.767,92.83 C57.719,92.751 55.802,92.94 54.184,93.782 C54.337,95.296 53.313,95.539 52.353,95.851 C51.641,98.674 53.777,102.36 53.266,104.934 C52.901,106.768 50.645,107.051 48.987,107.394 C48.933,108.413 49.059,109.264 49.173,110.126 C48.793,111.523 47.093,112.318 45.482,112.513 C40.18,113.15 32.131,113.437 27.032,111.603 C25.609,108.113 24.488,103.868 23.302,99.882 C18.329,100.413 14.307,97.736 10.515,95.983 C9.202,95.374 7.386,95.039 6.895,93.993 C6.42,92.982 6.614,91.043 6.496,89.211 C6.196,84.533 5.939,80.02 4.704,75.23 C4.149,73.081 3.182,71.184 2.507,69.113 C1.884,67.193 0.795,64.821 0.511,62.906 C0.09,60.069 2.761,59.911 4.469,58.682 C7.11,56.781 9.183,55.73 12.043,54.014 C12.89,53.506 15.445,52.219 15.735,51.627 C16.313,50.452 14.744,48.797 14.324,47.876 C13.66,46.42 13.314,45.184 13.219,43.747 C10.82,43.368 9.001,41.94 7.903,40.33 C6.086,37.666 4.825,32.736 6.398,28.987 C6.521,28.691 7.136,28.111 7.227,27.657 C7.406,26.764 6.89,25.577 6.858,24.627 C6.693,19.753 7.682,15.554 10.963,14.084 C12.295,8.778 17.062,7.014 21.554,4.377 C23.232,3.392 25.083,2.762 26.995,2.059 C33.851,-0.465 44.371,0.01 50.061,4.314 C52.474,6.139 56.331,9.992 57.711,12.782 C61.354,20.148 61.095,32.457 58.547,41.416 C58.204,42.619 57.707,44.387 57.013,45.832 C56.53,46.841 55.026,48.86 55.209,49.751 C55.397,50.672 58.637,53.132 59.332,53.802 C60.583,55.009 62.96,56.611 63.152,58.134 C63.359,59.755 62.438,61.972 61.971,63.536 C60.411,68.755 58.889,73.58 57.121,78.233 Z M48.428,6.294 C43.762,3.661 35.865,1.681 30.902,4.155 C26.897,6.152 21.484,9.456 19.638,13.643 C21.363,17.682 19.128,21.384 18.985,25.486 C18.909,27.669 20.013,29.574 20.097,31.95 C19.507,32.923 17.705,33.043 16.457,32.976 C16.037,30.874 15.302,28.512 13.137,28.275 C10.075,27.94 7.836,30.475 7.697,33.123 C7.532,36.238 10.089,41.4 13.713,41.042 C15.113,40.904 15.457,39.5 16.983,39.515 C17.81,41.164 15.707,41.682 15.491,42.862 C15.435,43.167 15.665,44.358 15.8,44.917 C16.458,47.637 17.926,51.157 19.37,53.227 C21.203,55.854 24.805,56.25 28.68,56.507 C29.372,55.016 31.922,55.139 33.583,55.529 C31.592,54.74 29.741,52.829 28.207,51.137 C26.445,49.196 24.66,47.113 24.57,44.576 C27.9,49.195 30.651,53.229 36.705,55.261 C41.286,56.798 46.637,54.557 50.157,52.085 C51.618,51.058 52.49,49.427 53.528,47.935 C57.413,42.347 59.226,34.371 58.827,26.64 C58.663,23.451 58.67,20.274 57.601,18.129 C56.482,15.886 52.701,13.879 50.487,15.908 C50.077,13.727 52.328,12.378 54.972,13.163 C53.087,10.73 51.108,7.806 48.428,6.294 Z M25.028,5.095 C20.533,6.37 14.772,9.636 12.925,13.674 C14.355,13.466 15.348,12.745 16.759,12.656 C17.292,12.621 17.991,12.879 18.604,12.727 C19.825,12.424 20.856,9.685 21.777,8.667 C22.675,7.672 23.755,7.246 24.494,6.339 C24.968,6.11 25.67,6.126 25.697,5.413 C25.491,5.193 25.275,5.026 25.028,5.095 Z M10.821,17.776 C8.835,19.961 9.251,24.054 9.491,26.966 C13.08,24.709 17.844,27.145 17.799,30.985 C19.513,30.94 18.439,28.845 18.129,27.496 C17.116,23.088 19.836,18.3 18.253,14.27 C15.178,14.503 12.653,15.758 10.821,17.776 Z M50.638,54.73 C54.805,52.709 55.556,62.282 53.923,65.366 C54.175,66.285 55.043,66.638 55.398,67.464 C53.072,71.63 50.489,75.519 48.117,79.635 C49.882,78.536 52.403,79.439 54.48,78.616 C55.239,78.316 55.789,76.578 56.363,75.188 C57.945,71.362 59.604,66.54 60.343,62.889 C60.51,62.058 60.964,60.245 60.862,59.505 C60.681,58.179 58.882,57.197 57.967,56.377 C56.282,54.863 55.221,53.531 53.463,52.115 C52.75,53.167 51.221,53.874 50.638,54.73 Z M20.351,58.033 C19.942,57.742 17.178,54.146 16.8,54.295 C11.798,56.267 7.121,59.678 2.943,62.904 C6.927,71.453 8.535,81.928 8.82,92.024 C13.384,94.159 17.393,97.236 23.587,97.558 C22.87,92.487 22.216,87.963 21.809,83.188 C20.253,82.532 18.02,83.218 16.564,82.985 C16.551,81.23 18.788,82.216 18.974,81.036 C19.115,80.143 17.744,80.076 18.19,78.67 C19.329,79.084 19.926,79.998 21.141,80.341 C22.25,77.914 21.125,73.619 21.285,71.59 C21.315,71.209 21.475,69.48 22.329,69.783 C23.084,70.052 22.285,74.383 22.368,76.303 C22.443,78.072 22.154,79.784 22.871,80.894 C28.856,80.08 34.938,79.553 41.414,79.375 C39.989,78.764 38.297,78.186 36.441,77.14 C35.435,76.573 32.264,75.393 31.974,74.437 C31.511,72.915 33.189,72.104 33.476,70.799 C30.455,72.447 29.866,69.22 29.151,66.933 C28.503,64.863 28.135,63.316 27.976,62.121 C25.373,60.881 22.591,59.624 20.351,58.033 Z M53.281,61.837 C53.211,60.37 52.825,57.352 51.918,56.823 C50.014,55.712 46.63,59.067 45.196,59.579 C45.352,60.028 45.61,60.384 45.629,60.957 C46.477,60.749 47.51,60.892 48.245,61.253 C47.395,61.348 46.453,61.342 45.89,61.746 C45.684,62.342 45.941,63.153 45.804,63.98 C47.821,64.549 50.125,64.852 52.675,64.927 C53.171,64.282 53.34,63.054 53.281,61.837 Z M38.569,57.376 C38.563,57.505 38.395,57.458 38.367,57.563 C40.041,58.871 41.285,59.142 43.563,59.029 C44.591,58.284 45.502,57.412 46.572,56.713 C44.109,56.933 41.008,58.463 38.569,57.376 Z M22.541,56.756 C21.24,58.077 26.191,59.877 27.767,59.974 C27.758,59.138 28.243,58.35 28.145,57.751 C26.273,57.422 23.813,57.639 22.541,56.756 Z M37.515,59.476 C35.947,58.619 33.592,57.686 31.568,57.3 C29.058,56.82 29.293,60.723 29.399,63.052 C29.483,64.896 30.442,66.846 30.858,68.071 C31.054,68.643 31.098,69.25 31.587,69.364 C32.451,69.565 35.302,68.425 36.115,67.982 C37.833,67.045 39.166,65.557 40.626,64.558 C40.645,64.072 40.663,63.587 40.682,63.101 C39.805,62.663 38.791,62.353 37.503,62.297 C38.377,61.857 39.662,61.864 40.458,61.341 C40.466,61.146 40.474,60.952 40.481,60.759 C39.027,60.647 38.473,59.999 37.515,59.476 Z M41.55,60.8 C41.45,61.907 41.708,62.269 41.93,63.538 C45.568,64.675 44.933,58.544 41.55,60.8 Z M44.511,64.709 C43.578,64.608 42.785,65.782 41.571,65.275 C41.293,65.582 41.04,65.915 40.756,66.215 C43.438,69.447 44.657,74.032 46.728,77.83 C47.839,74.182 47.711,70.185 47.956,66.203 C46.429,66.3 45.582,64.822 44.511,64.709 Z M49.117,66.345 C48.961,70.222 48.519,75.307 47.485,78.345 C49.95,75.207 51.938,71.553 54.015,67.994 C53.13,66.573 51.279,65.334 49.117,66.345 Z M45.054,78.349 C43.406,74.473 41.909,70.456 39.448,67.332 C37.064,68.931 34.438,70.435 33.768,73.339 C37.181,75.27 41.16,77.175 45.054,78.349 Z M66.876,92.62 C69.223,92.05 70.698,89.176 70.042,86.224 C69.601,84.241 68.817,80.505 67.977,79.236 C67.357,78.298 65.675,77.069 64.332,77.929 C62.147,79.328 58.298,79.734 56.705,81.427 C57.504,84.087 57.752,87.741 58.081,91.111 C60.811,91.281 64.169,90.36 66.439,91.338 C64.854,91.851 62.798,91.855 61.429,92.603 C62.548,93.144 65.168,93.034 66.876,92.62 Z M54.756,81.546 C54.007,81.374 53.135,81.539 52.419,81.553 C52.756,84.903 53.572,88.599 53.859,92.115 C54.985,92.15 55.586,91.619 56.512,91.441 C56.562,88.354 56.243,84.102 54.756,81.546 Z M46.751,82.208 C46.696,86.318 46.935,90.371 47.249,94.485 C48.827,94.249 49.897,94.09 51.364,93.769 C50.887,89.808 50.946,85.351 49.976,81.847 C48.856,81.858 47.869,81.834 46.751,82.208 Z M22.885,83.035 C23.926,92.603 25.433,100.646 28.198,109.119 C34.335,110.982 41.732,111.145 47.156,109.463 C46.161,104.681 46.596,98.859 46.014,93.756 C45.575,89.921 45.798,86.061 45.197,82.148 C38.625,80.781 29.335,81.828 22.885,83.035 Z M47.462,96.537 C47.362,98.911 47.696,102.718 47.807,105.209 C49.385,105.211 50.062,104.864 51.24,104.466 C51.373,101.536 50.312,98.825 50.007,96.149 C49.383,95.983 48.238,96.588 47.462,96.537 Z" id="Fill-60" fill="#1B1A19" mask="url(#mask-2)"></path>
        </g>
        <path d="M40.797,42.103 C40.995,41.84 42.082,41.44 43.604,42.173 C43.604,42.173 41.8,42.474 41.95,45.48 L41.199,45.33 C41.199,45.33 40.422,42.603 40.797,42.103" id="Fill-62" fill="#F6E2C7"></path>
        <path d="M53.973,67.946 C53.973,68.402 53.603,68.772 53.146,68.772 C52.69,68.772 52.32,68.402 52.32,67.946 C52.32,67.49 52.69,67.119 53.146,67.119 C53.603,67.119 53.973,67.49 53.973,67.946" id="Fill-63" fill="#181615"></path>
        <path d="M54.799,71.778 C54.799,72.234 54.429,72.604 53.972,72.604 C53.516,72.604 53.146,72.234 53.146,71.778 C53.146,71.322 53.516,70.951 53.972,70.951 C54.429,70.951 54.799,71.322 54.799,71.778" id="Fill-64" fill="#181615"></path>
        <path d="M141.423,35.687 L117.395,35.687 L117.395,38.16 C117.99,38.244 118.738,38.382 119.641,38.572 C120.543,38.762 121.313,38.995 121.95,39.27 C122.841,39.651 123.404,40.095 123.638,40.602 C123.872,41.11 123.988,41.744 123.988,42.506 L123.988,67.917 C123.988,71.597 123.262,74.346 121.811,76.165 C120.359,77.984 118.362,78.893 115.819,78.893 C115.162,78.893 114.515,78.746 113.88,78.45 C113.244,78.154 112.831,77.795 112.64,77.372 L112.64,76.96 C113.845,75.988 114.917,74.926 115.858,73.774 C116.798,72.622 117.268,71.37 117.268,70.017 C117.268,68.433 116.724,67.101 115.636,66.023 C114.547,64.946 113.084,64.407 111.245,64.407 C109.301,64.407 107.774,65.052 106.665,66.34 C105.555,67.63 105,69.257 105,71.222 C105,74.54 106.21,77.15 108.63,79.052 C111.05,80.954 114.236,81.905 118.187,81.905 C120.47,81.905 122.614,81.582 124.622,80.938 C126.63,80.293 128.447,79.335 130.075,78.066 C131.681,76.776 132.944,75.18 133.863,73.277 C134.782,71.373 135.242,69.28 135.242,66.995 L135.242,42.188 C135.242,41.427 135.363,40.75 135.606,40.158 C135.849,39.566 136.404,39.154 137.271,38.921 C138.01,38.731 138.676,38.583 139.268,38.477 C139.859,38.371 140.578,38.266 141.423,38.16 L141.423,35.687 Z M176.61,71.349 C175.489,73.019 174.137,74.397 172.552,75.486 C170.967,76.574 169.181,77.118 167.195,77.118 C163.56,77.118 160.908,75.988 159.238,73.726 C157.569,71.465 156.734,68.169 156.734,63.836 L178.163,63.836 L178.163,61.776 C178.163,59.98 177.888,58.263 177.339,56.625 C176.789,54.987 175.912,53.566 174.708,52.361 C173.461,51.093 171.886,50.1 169.984,49.381 C168.083,48.663 165.652,48.303 162.694,48.303 C159.988,48.303 157.542,48.768 155.355,49.698 C153.168,50.628 151.356,51.843 149.919,53.344 C148.461,54.887 147.335,56.646 146.543,58.622 C145.75,60.598 145.354,62.663 145.354,64.819 C145.354,67.207 145.719,69.421 146.448,71.46 C147.177,73.5 148.281,75.269 149.76,76.77 C151.239,78.27 153.115,79.464 155.387,80.352 C157.658,81.239 160.358,81.683 163.486,81.683 C165.367,81.683 167.031,81.477 168.479,81.065 C169.926,80.653 171.358,80.045 172.774,79.242 C174.105,78.481 175.294,77.568 176.34,76.5 C177.386,75.433 178.279,74.297 179.019,73.092 L176.61,71.349 Z M156.734,61.173 C156.818,57.602 157.347,54.992 158.319,53.344 C159.291,51.695 160.591,50.871 162.218,50.871 C163.169,50.871 163.956,51.125 164.58,51.632 C165.203,52.139 165.694,52.889 166.054,53.882 C166.371,54.728 166.593,55.816 166.719,57.148 C166.846,58.479 166.91,59.779 166.91,61.047 L156.734,61.173 Z M223.905,78.354 C223.271,78.291 222.706,78.186 222.209,78.038 C221.713,77.89 221.295,77.742 220.957,77.594 C220.323,77.319 219.89,76.949 219.658,76.484 C219.425,76.02 219.309,75.396 219.309,74.614 L219.309,59.081 C219.309,55.848 218.448,53.254 216.725,51.299 C215.003,49.344 212.419,48.367 208.975,48.367 C207.538,48.367 206.185,48.547 204.917,48.906 C203.649,49.265 202.624,49.698 201.843,50.205 C201.124,50.67 200.342,51.273 199.497,52.012 C198.651,52.752 197.933,53.386 197.341,53.914 L197.214,53.914 L197.214,49.318 L196.739,48.842 L181.618,49.666 L181.618,51.981 C182.316,52.044 182.955,52.16 183.536,52.329 C184.117,52.499 184.598,52.71 184.978,52.963 C185.528,53.365 185.972,53.882 186.31,54.516 C186.648,55.15 186.817,55.795 186.817,56.45 L186.817,74.899 C186.817,75.681 186.69,76.315 186.437,76.801 C186.183,77.288 185.718,77.647 185.042,77.879 C184.661,78.006 184.202,78.106 183.663,78.18 C183.124,78.255 182.59,78.312 182.062,78.354 L182.062,80.669 L201.335,80.669 L201.335,78.354 C200.849,78.291 200.353,78.186 199.845,78.038 C199.338,77.89 198.915,77.721 198.577,77.53 C198.091,77.277 197.742,76.902 197.531,76.405 C197.32,75.909 197.214,75.291 197.214,74.551 L197.214,57.528 C197.468,57.19 197.781,56.799 198.152,56.355 C198.523,55.911 199.015,55.478 199.63,55.055 C200.329,54.569 201.045,54.2 201.776,53.946 C202.507,53.692 203.296,53.566 204.144,53.566 C205.69,53.566 206.862,54.11 207.656,55.198 C208.45,56.287 208.848,57.908 208.848,60.064 L208.848,74.899 C208.848,75.766 208.753,76.421 208.563,76.865 C208.373,77.308 208.056,77.647 207.612,77.879 C207.316,78.027 206.883,78.133 206.312,78.196 C205.742,78.259 205.255,78.312 204.854,78.354 L204.854,80.669 L223.905,80.669 L223.905,78.354 Z M267.524,78.354 C266.553,78.27 265.582,78.059 264.611,77.721 C263.64,77.383 262.828,76.717 262.174,75.725 C260.254,72.873 258.419,70.169 256.668,67.614 C254.917,65.058 253.008,62.281 250.941,59.281 C251.994,58.349 252.926,57.569 253.737,56.945 C254.549,56.32 255.387,55.721 256.252,55.15 C257.56,54.284 258.769,53.592 259.876,53.074 C260.983,52.557 262.593,52.002 264.703,51.41 L264.703,49.223 L248.599,49.223 L248.599,51.473 C249.94,51.664 250.944,51.885 251.612,52.139 C252.279,52.393 252.613,52.71 252.613,53.09 C252.613,53.175 252.576,53.402 252.502,53.772 C252.428,54.141 252.042,54.685 251.345,55.404 C250.162,56.608 248.595,58.13 246.643,59.968 C244.69,61.806 242.934,63.423 241.372,64.817 L241.372,32.105 L240.895,31.598 L225.11,32.422 L225.11,34.736 C225.765,34.779 226.494,34.884 227.297,35.053 C228.1,35.222 228.703,35.433 229.104,35.687 C229.695,36.067 230.145,36.633 230.451,37.383 C230.757,38.133 230.911,38.857 230.911,39.554 L230.911,74.899 C230.911,75.681 230.789,76.315 230.544,76.801 C230.299,77.288 229.836,77.647 229.156,77.879 C228.752,78.006 228.283,78.106 227.752,78.18 C227.219,78.255 226.688,78.312 226.156,78.354 L226.156,80.669 L245.841,80.669 L245.841,78.354 C245.334,78.312 244.827,78.228 244.32,78.101 C243.813,77.974 243.369,77.826 242.989,77.657 C242.355,77.425 241.927,77.066 241.705,76.579 C241.483,76.093 241.372,75.47 241.372,74.709 L241.372,67.799 L243.239,66.219 C244.59,68.137 246.026,70.219 247.547,72.464 C249.067,74.708 250.745,77.444 252.583,80.669 L267.524,80.669 L267.524,78.354 Z M287.907,78.354 C287.357,78.291 286.829,78.186 286.322,78.038 C285.815,77.89 285.35,77.721 284.927,77.53 C284.335,77.277 283.881,76.891 283.564,76.373 C283.247,75.856 283.088,75.227 283.088,74.487 L283.088,49.318 L282.613,48.842 L267.08,49.666 L267.08,51.981 C267.714,52.044 268.416,52.192 269.188,52.424 C269.96,52.657 270.535,52.9 270.916,53.153 C271.423,53.492 271.846,53.941 272.184,54.501 C272.522,55.061 272.691,55.711 272.691,56.45 L272.691,74.899 C272.691,75.681 272.553,76.31 272.279,76.785 C272.004,77.261 271.529,77.625 270.852,77.879 C270.472,78.027 270.017,78.133 269.489,78.196 C268.961,78.259 268.422,78.312 267.873,78.354 L267.873,80.669 L287.907,80.669 L287.907,78.354 Z M281.44,33.31 C280.214,32.168 278.746,31.598 277.034,31.598 C275.322,31.598 273.848,32.168 272.612,33.31 C271.375,34.451 270.757,35.825 270.757,37.43 C270.757,39.037 271.375,40.405 272.612,41.535 C273.848,42.666 275.322,43.231 277.034,43.231 C278.724,43.231 280.188,42.666 281.424,41.535 C282.66,40.405 283.279,39.037 283.279,37.43 C283.279,35.825 282.665,34.451 281.44,33.31 Z M332.666,78.354 C332.033,78.291 331.467,78.186 330.971,78.038 C330.474,77.89 330.056,77.742 329.718,77.594 C329.084,77.319 328.651,76.949 328.419,76.484 C328.186,76.02 328.07,75.396 328.07,74.614 L328.07,59.081 C328.07,55.848 327.209,53.254 325.487,51.299 C323.764,49.344 321.18,48.367 317.736,48.367 C316.299,48.367 314.946,48.547 313.678,48.906 C312.41,49.265 311.385,49.698 310.604,50.205 C309.885,50.67 309.103,51.273 308.258,52.012 C307.413,52.752 306.694,53.386 306.102,53.914 L305.975,53.914 L305.975,49.318 L305.5,48.842 L290.379,49.666 L290.379,51.981 C291.077,52.044 291.716,52.16 292.297,52.329 C292.878,52.499 293.359,52.71 293.739,52.963 C294.289,53.365 294.733,53.882 295.071,54.516 C295.409,55.15 295.578,55.795 295.578,56.45 L295.578,74.899 C295.578,75.681 295.451,76.315 295.198,76.801 C294.944,77.288 294.479,77.647 293.803,77.879 C293.422,78.006 292.963,78.106 292.424,78.18 C291.885,78.255 291.351,78.312 290.823,78.354 L290.823,80.669 L310.096,80.669 L310.096,78.354 C309.61,78.291 309.114,78.186 308.607,78.038 C308.099,77.89 307.676,77.721 307.339,77.53 C306.852,77.277 306.503,76.902 306.292,76.405 C306.081,75.909 305.975,75.291 305.975,74.551 L305.975,57.528 C306.229,57.19 306.542,56.799 306.913,56.355 C307.284,55.911 307.776,55.478 308.391,55.055 C309.09,54.569 309.806,54.2 310.537,53.946 C311.268,53.692 312.057,53.566 312.905,53.566 C314.452,53.566 315.623,54.11 316.417,55.198 C317.212,56.287 317.609,57.908 317.609,60.064 L317.609,74.899 C317.609,75.766 317.514,76.421 317.324,76.865 C317.134,77.308 316.817,77.647 316.373,77.879 C316.077,78.027 315.644,78.133 315.073,78.196 C314.503,78.259 314.016,78.312 313.615,78.354 L313.615,80.669 L332.666,80.669 L332.666,78.354 Z M360.927,78.893 C363.642,76.991 365,74.308 365,70.842 C365,68.242 364.124,66.103 362.374,64.423 C360.622,62.743 357.858,61.417 354.082,60.444 C351.635,59.81 349.731,59.134 348.37,58.416 C347.009,57.697 346.329,56.535 346.329,54.929 C346.329,53.724 346.794,52.784 347.724,52.107 C348.654,51.431 349.932,51.093 351.559,51.093 C353.63,51.093 355.564,51.891 357.36,53.486 C359.156,55.082 360.424,56.979 361.164,59.176 L363.383,59.176 L362.876,48.367 L360.467,48.367 L359.801,50.237 C358.702,49.772 357.345,49.344 355.728,48.953 C354.111,48.562 352.341,48.367 350.418,48.367 C346.361,48.367 343.08,49.286 340.576,51.125 C338.071,52.963 336.819,55.372 336.819,58.352 C336.819,59.958 337.104,61.343 337.675,62.505 C338.246,63.667 339.006,64.66 339.957,65.485 C341.056,66.415 342.118,67.096 343.143,67.529 C344.168,67.962 345.399,68.391 346.836,68.813 C348.273,69.236 349.483,69.595 350.466,69.891 C351.448,70.187 352.352,70.546 353.176,70.969 C353.916,71.37 354.497,71.846 354.92,72.395 C355.342,72.945 355.554,73.642 355.554,74.487 C355.554,76.051 355.083,77.208 354.143,77.958 C353.202,78.709 351.77,79.084 349.848,79.084 C348.389,79.084 347.021,78.756 345.743,78.101 C344.464,77.446 343.328,76.643 342.335,75.692 C341.384,74.741 340.539,73.668 339.799,72.474 C339.059,71.281 338.531,70.208 338.214,69.257 L335.9,69.257 L336.312,81.081 L338.784,81.081 L339.735,78.925 C340.813,79.602 342.33,80.241 344.284,80.843 C346.239,81.445 348.242,81.746 350.291,81.746 C354.666,81.746 358.211,80.795 360.927,78.893 Z" id="Fill-65" fill="#0A0B09"></path>
    </g>
</svg>