<?xml version="1.0" encoding="UTF-8"?>
<svg width="256px" height="180px" viewBox="0 0 256 180" version="1.1" xmlns="http://www.w3.org/2000/svg" xmlns:xlink="http://www.w3.org/1999/xlink">
    <!-- Generator: Sketch 51.3 (57544) - http://www.bohemiancoding.com/sketch -->
    <title>salesforca-seeklogo.com</title>
    <desc>Created with Sketch.</desc>
    <defs></defs>
    <g id="Page-1" stroke="none" stroke-width="1" fill="none" fill-rule="evenodd">
        <g id="salesforca-seeklogo.com" fill-rule="nonzero">
            <path d="M106.553203,159.610975 C114.801129,168.204993 126.284107,173.534814 138.983873,173.534814 C155.865892,173.534814 170.594851,164.121104 178.438396,150.146261 C185.254593,153.191873 192.799405,154.885904 200.737669,154.885904 C231.186506,154.885904 255.871995,129.985474 255.871995,99.2706928 C255.871995,68.5522687 231.186506,43.6518383 200.737669,43.6518383 C197.021731,43.6518383 193.389583,44.0234322 189.877657,44.7338321 C182.970383,32.4129462 169.807947,24.0885156 154.700107,24.0885156 C148.375726,24.0885156 142.393793,25.5493894 137.067615,28.1469032 C130.065621,11.6765527 113.751923,0.127999 94.7387049,0.127999 C74.9385822,0.127999 58.0638501,12.6565404 51.5864595,30.2271001 C48.7557888,29.6259924 45.8231119,29.3126878 42.8139304,29.3126878 C19.23958,29.3126878 0.127998772,48.6209952 0.127998772,72.4430748 C0.127998772,88.4070376 8.71473094,102.345449 21.4727861,109.802828 C18.8461277,115.846692 17.3852539,122.517166 17.3852539,129.530089 C17.3852539,156.926027 39.6262381,179.134224 67.0586069,179.134224 C83.1646497,179.134224 97.4782987,171.476476 106.553203,159.610975" id="Shape" fill="#00A1E0" transform="translate(127.999997, 89.631112) scale(-1, 1) rotate(-180.000000) translate(-127.999997, -89.631112) "></path>
            <path d="M37.1700744,75.3309407 C37.009779,74.9119869 37.2283636,74.824553 37.2793667,74.7516915 C37.7602528,74.4019561 38.2484251,74.1505838 38.7402405,73.8700669 C41.3486835,72.4856977 43.8114035,72.0813162 46.3870588,72.0813162 C51.6330895,72.0813162 54.8900002,74.871913 54.8900002,79.3638268 L54.8900002,79.4512607 C54.8900002,83.6043683 51.2141357,85.1126021 47.7641419,86.2018821 L47.3160434,86.3476052 C44.7148866,87.192799 42.4707512,87.9214144 42.4707512,89.6336605 L42.4707512,89.7247374 C42.4707512,91.1892543 43.7822589,92.2676051 45.8150958,92.2676051 C48.0738034,92.2676051 50.755108,91.5171312 52.4819264,90.5626451 C52.4819264,90.5626451 52.9883141,90.2347682 53.174111,90.7265836 C53.2761172,90.9888851 54.1504556,93.3423127 54.2415326,93.5973281 C54.3398956,93.874202 54.1650279,94.0782143 53.9865172,94.1875066 C52.0156126,95.3860789 49.2905911,96.2057712 46.4708496,96.2057712 L45.9462465,96.2021281 C41.1446712,96.2021281 37.7930405,93.3022389 37.7930405,89.1454882 L37.7930405,89.0580544 C37.7930405,84.6754329 41.4907635,83.2546329 44.9553296,82.263716 L45.5127204,82.0924914 C48.0373727,81.316516 50.2122895,80.649833 50.2122895,78.8720114 L50.2122895,78.7845776 C50.2122895,77.1597653 48.7987757,75.9502638 46.5182096,75.9502638 C45.6329419,75.9502638 42.8095574,75.9684792 39.760302,77.8956668 C39.3923513,78.1106084 39.1774097,78.2672607 38.8932497,78.4384853 C38.7438836,78.5332053 38.3686467,78.6971438 38.2047082,78.2016853 L37.1700744,75.3309407 Z" id="Shape" fill="#FFFFFF" transform="translate(46.001138, 84.143544) scale(-1, 1) rotate(-180.000000) translate(-46.001138, -84.143544) "></path>
            <path d="M113.969779,75.3309407 C113.809484,74.9119869 114.028068,74.824553 114.079072,74.7516915 C114.559958,74.4019561 115.04813,74.1505838 115.539945,73.8700669 C118.148388,72.4856977 120.611108,72.0813162 123.186764,72.0813162 C128.432794,72.0813162 131.689705,74.871913 131.689705,79.3638268 L131.689705,79.4512607 C131.689705,83.6043683 128.013841,85.1126021 124.563847,86.2018821 L124.115748,86.3476052 C121.514591,87.192799 119.270456,87.9214144 119.270456,89.6336605 L119.270456,89.7247374 C119.270456,91.1892543 120.581964,92.2676051 122.614801,92.2676051 C124.873508,92.2676051 127.554813,91.5171312 129.281631,90.5626451 C129.281631,90.5626451 129.788019,90.2347682 129.973816,90.7265836 C130.075822,90.9888851 130.95016,93.3423127 131.041237,93.5973281 C131.1396,93.874202 130.964733,94.0782143 130.786222,94.1875066 C128.815317,95.3860789 126.090296,96.2057712 123.270554,96.2057712 L122.745951,96.2021281 C117.944376,96.2021281 114.592745,93.3022389 114.592745,89.1454882 L114.592745,89.0580544 C114.592745,84.6754329 118.290468,83.2546329 121.755034,82.263716 L122.312425,82.0924914 C124.837077,81.316516 127.015637,80.649833 127.015637,78.8720114 L127.015637,78.7845776 C127.015637,77.1597653 125.598481,75.9502638 123.317914,75.9502638 C122.432647,75.9502638 119.609262,75.9684792 116.560007,77.8956668 C116.192056,78.1106084 115.973471,78.2599745 115.696598,78.4384853 C115.601878,78.5004176 115.157422,78.6716422 115.004413,78.2016853 L113.969779,75.3309407 Z" id="Shape" fill="#FFFFFF" transform="translate(122.800843, 84.143544) scale(-1, 1) rotate(-180.000000) translate(-122.800843, -84.143544) "></path>
            <path d="M166.398769,84.1136746 C166.398769,81.5744501 165.925169,79.5744009 164.992541,78.160887 C164.070843,76.7619455 162.675544,76.0806902 160.730141,76.0806902 C158.781095,76.0806902 157.393083,76.7583024 156.485956,78.160887 C155.567901,79.5707578 155.101587,81.5744501 155.101587,84.1136746 C155.101587,86.6492561 155.567901,88.6456623 156.485956,90.0446038 C157.393083,91.428973 158.781095,92.1029422 160.730141,92.1029422 C162.675544,92.1029422 164.070843,91.428973 164.996184,90.0446038 C165.925169,88.6456623 166.398769,86.6492561 166.398769,84.1136746 M170.777747,88.8205299 C170.347864,90.2741176 169.677538,91.5564807 168.784984,92.6239022 C167.89243,93.6949668 166.763076,94.5547329 165.422424,95.1813422 C164.085415,95.8043083 162.504319,96.121256 160.730141,96.121256 C158.95232,96.121256 157.371224,95.8043083 156.034215,95.1813422 C154.693563,94.5547329 153.564209,93.6949668 152.668012,92.6239022 C151.779101,91.5528376 151.108775,90.2704745 150.675249,88.8205299 C150.249009,87.3742284 150.034067,85.7931331 150.034067,84.1136746 C150.034067,82.4342162 150.249009,80.8494778 150.675249,79.4068193 C151.108775,77.9568747 151.775458,76.6745117 152.671655,75.6034471 C153.564209,74.5323825 154.697206,73.6762594 156.034215,73.0678656 C157.374867,72.4594717 158.95232,72.1498102 160.730141,72.1498102 C162.504319,72.1498102 164.081772,72.4594717 165.422424,73.0678656 C166.759433,73.6762594 167.89243,74.5323825 168.784984,75.6034471 C169.677538,76.6708686 170.347864,77.9532317 170.777747,79.4068193 C171.20763,80.8531208 171.422572,82.4378593 171.422572,84.1136746 C171.422572,85.78949 171.20763,87.3742284 170.777747,88.8205299" id="Shape" fill="#FFFFFF" transform="translate(160.728319, 84.135533) scale(-1, 1) rotate(-180.000000) translate(-160.728319, -84.135533) "></path>
            <path d="M206.737482,76.7251423 C206.591759,77.1513823 206.180091,76.9910869 206.180091,76.9910869 C205.542553,76.7470008 204.864941,76.52113 204.143612,76.4081946 C203.411353,76.2952592 202.606233,76.23697 201.742824,76.23697 C199.622553,76.23697 197.939452,76.8672223 196.733593,78.1131546 C195.524092,79.3590869 194.846479,81.3737084 194.853766,84.0987299 C194.861052,86.5796652 195.458516,88.4449206 196.533224,89.8657205 C197.600645,91.2792344 199.225458,92.0042067 201.393088,92.0042067 C203.200055,92.0042067 204.577138,91.7965513 206.019796,91.3411667 C206.019796,91.3411667 206.365888,91.1918005 206.529827,91.643542 C206.91235,92.7073205 207.19651,93.4687236 207.604535,94.6381512 C207.721113,94.9696712 207.436953,95.1117512 207.334947,95.1518251 C206.766627,95.3740528 205.425975,95.7347174 204.413199,95.8877266 C203.465999,96.0334497 202.358504,96.1099543 201.127144,96.1099543 C199.28739,96.1099543 197.648005,95.7966497 196.245421,95.1700405 C194.846479,94.5470743 193.658836,93.6873082 192.718922,92.6162436 C191.779009,91.545179 191.064966,90.2628159 190.587723,88.8128713 C190.114123,87.3665698 189.873679,85.7781883 189.873679,84.0987299 C189.873679,80.4665822 190.853667,77.5302623 192.788141,75.3808469 C194.726258,73.2241454 197.637076,72.1275793 201.433162,72.1275793 C203.677298,72.1275793 205.979722,72.5829639 207.633679,73.2350747 C207.633679,73.2350747 207.950627,73.3880839 207.81219,73.7560346 L206.737482,76.7251423 Z" id="Shape" fill="#FFFFFF" transform="translate(198.860433, 84.118767) scale(-1, 1) rotate(-180.000000) translate(-198.860433, -84.118767) "></path>
            <path d="M214.399204,86.5520199 C214.606859,87.9618907 214.996668,89.1349614 215.597776,90.0493737 C216.504902,91.437386 217.889271,92.1987891 219.834675,92.1987891 C221.780078,92.1987891 223.066084,91.4337429 223.987782,90.0493737 C224.599819,89.1349614 224.865764,87.9108876 224.971413,86.5520199 L214.399204,86.5520199 Z M229.142736,89.6522784 C228.771142,91.054863 227.849444,92.4720199 227.244693,93.1204875 C226.290207,94.1478352 225.357579,94.8655214 224.432238,95.2662598 C223.222736,95.7835767 221.772791,96.1260259 220.18441,96.1260259 C218.333727,96.1260259 216.654268,95.8163644 215.291758,95.1751829 C213.925604,94.5340014 212.778035,93.6596629 211.878195,92.5703829 C210.978355,91.484746 210.300742,90.1914537 209.870859,88.7232938 C209.437333,87.2624199 209.218749,85.6703953 209.218749,83.9909369 C209.218749,82.2823339 209.444619,80.6903093 209.892718,79.2585801 C210.344459,77.8159216 211.065789,76.5444878 212.042133,75.4916386 C213.014835,74.4315032 214.268053,73.6008817 215.769001,73.0216325 C217.259019,72.4460263 219.069628,72.147294 221.149825,72.1509371 C225.430441,72.1655094 227.685505,73.1199956 228.61449,73.6336694 C228.778428,73.7247463 228.935081,73.8850417 228.738354,74.3440694 L227.769296,77.0581616 C227.623573,77.4625432 227.211905,77.313177 227.211905,77.313177 C226.15177,76.9197247 224.643536,76.2129678 221.127967,76.220254 C218.829185,76.223897 217.124225,76.9015093 216.056804,77.9616447 C214.960238,79.0472816 214.424705,80.6429493 214.329985,82.8943708 L229.153665,82.8797985 C229.153665,82.8797985 229.543474,82.8870846 229.583548,83.2659646 C229.598121,83.42626 230.093579,86.3115769 229.142736,89.6522784 Z" id="Shape" fill="#FFFFFF" transform="translate(219.472103, 84.138465) scale(-1, 1) rotate(-180.000000) translate(-219.472103, -84.138465) "></path>
            <path d="M95.6829901,86.5520199 C95.8942885,87.9618907 96.2804547,89.1349614 96.8815624,90.0493737 C97.7886885,91.437386 99.1730577,92.1987891 101.118461,92.1987891 C103.063864,92.1987891 104.34987,91.4337429 105.275211,90.0493737 C105.883605,89.1349614 106.14955,87.9108876 106.255199,86.5520199 L95.6829901,86.5520199 Z M110.422879,89.6522784 C110.051285,91.054863 109.13323,92.4720199 108.528479,93.1204875 C107.573993,94.1478352 106.641365,94.8655214 105.716024,95.2662598 C104.506522,95.7835767 103.056578,96.1260259 101.468196,96.1260259 C99.6211562,96.1260259 97.9380547,95.8163644 96.5755439,95.1751829 C95.2093901,94.5340014 94.0618209,93.6596629 93.1619809,92.5703829 C92.2621409,91.484746 91.5845286,90.1914537 91.1546455,88.7232938 C90.7247625,87.2624199 90.5025348,85.6703953 90.5025348,83.9909369 C90.5025348,82.2823339 90.7284055,80.6903093 91.176504,79.2585801 C91.6282455,77.8159216 92.3495747,76.5444878 93.3259193,75.4916386 C94.2986209,74.4315032 95.5518393,73.6008817 97.052787,73.0216325 C98.5428054,72.4460263 100.353415,72.147294 102.433612,72.1509371 C106.714227,72.1655094 108.969291,73.1199956 109.898276,73.6336694 C110.062214,73.7247463 110.218867,73.8850417 110.022141,74.3440694 L109.056725,77.0581616 C108.907359,77.4625432 108.495691,77.313177 108.495691,77.313177 C107.435556,76.9197247 105.930965,76.2129678 102.40811,76.220254 C100.112972,76.223897 98.4080116,76.9015093 97.3405901,77.9616447 C96.2440239,79.0472816 95.7084916,80.6429493 95.6137716,82.8943708 L110.437451,82.8797985 C110.437451,82.8797985 110.827261,82.8870846 110.867334,83.2659646 C110.881907,83.42626 111.377365,86.3115769 110.422879,89.6522784 Z" id="Shape" fill="#FFFFFF" transform="translate(100.755643, 84.138465) scale(-1, 1) rotate(-180.000000) translate(-100.755643, -84.138465) "></path>
            <path d="M63.6417638,76.8187748 C63.0625146,77.2814456 62.9823669,77.398024 62.7856408,77.6967563 C62.4941946,78.1521409 62.3448285,78.8006086 62.3448285,79.623944 C62.3448285,80.9281655 62.7747115,81.8644363 63.6672654,82.4946886 C63.6563361,82.4910455 64.9423423,83.605827 67.9660961,83.5657532 C70.0900099,83.5366085 71.9880529,83.2233039 71.9880529,83.2233039 L71.9880529,76.4836117 L71.991696,76.4836117 C71.991696,76.4836117 70.1082253,76.0792302 67.9879545,75.9517225 C64.9714869,75.7695687 63.6308346,76.8224179 63.6417638,76.8187748 M69.5399053,87.2343316 C68.9387976,87.2780485 68.1591792,87.30355 67.2265515,87.30355 C65.9551176,87.30355 64.7274007,87.1432546 63.5761885,86.8335931 C62.41769,86.5239316 61.37577,86.0394023 60.4795731,85.3982208 C59.5797331,84.7533962 58.8547608,83.9300608 58.3301578,82.9537162 C57.8055547,81.9773716 57.5396101,80.8261593 57.5396101,79.5365101 C57.5396101,78.2250025 57.7654809,77.0847194 58.2172224,76.1520917 C58.6689639,75.215821 59.3210747,74.4362025 60.1516962,73.8350948 C60.9750316,73.2339872 61.99145,72.7931749 63.1718069,72.5272303 C64.3339484,72.2612856 65.6527423,72.1264918 67.0954007,72.1264918 C68.6145638,72.1264918 70.1300837,72.2503564 71.5982437,72.5017287 C73.0518314,72.7494579 74.836939,73.1101226 75.3323975,73.2230579 C75.8242129,73.3396364 76.3706744,73.4890025 76.3706744,73.4890025 C76.7386252,73.5800795 76.7094806,73.9735318 76.7094806,73.9735318 L76.7021944,87.5294208 C76.7021944,90.5021715 75.9080036,92.706233 74.3451237,94.0723868 C72.7895298,95.4348976 70.4980345,96.1234391 67.536213,96.1234391 C66.4250746,96.1234391 64.6363238,95.9704299 63.5652592,95.7554883 C63.5652592,95.7554883 60.3265639,95.1288791 58.9931978,94.0869591 C58.9931978,94.0869591 58.7017516,93.9048053 58.862047,93.4967807 L59.9112531,90.6770392 C60.0424039,90.3127315 60.3957824,90.4365961 60.3957824,90.4365961 C60.3957824,90.4365961 60.5087177,90.480313 60.6398685,90.5568177 C63.4923977,92.1087684 67.0990438,92.0614084 67.0990438,92.0614084 C68.7019976,92.0614084 69.9333576,91.7408176 70.7639791,91.1032792 C71.5727422,90.4839561 71.9844099,89.5476854 71.9844099,87.5731377 L71.9844099,86.9465285 C70.709333,87.1286823 69.5399053,87.2343316 69.5399053,87.2343316" id="Shape" fill="#FFFFFF" transform="translate(67.124818, 84.124965) scale(-1, 1) rotate(-180.000000) translate(-67.124818, -84.124965) "></path>
            <path d="M189.099133,94.6589753 C189.212069,94.9941384 188.975269,95.1544337 188.876906,95.1908645 C188.625533,95.2892276 187.365029,95.5551722 186.392327,95.6171045 C184.530715,95.7300399 183.496081,95.4167353 182.57074,95.0014245 C181.652684,94.5861138 180.632623,93.9157876 180.064303,93.1543845 L180.064303,94.9577076 C180.064303,95.2090799 179.885792,95.4094491 179.638063,95.4094491 L175.838334,95.4094491 C175.590604,95.4094491 175.412094,95.2090799 175.412094,94.9577076 L175.412094,72.8478741 C175.412094,72.6001449 175.616106,72.3961326 175.863835,72.3961326 L179.758284,72.3961326 C180.006014,72.3961326 180.206383,72.6001449 180.206383,72.8478741 L180.206383,83.8936832 C180.206383,85.3764154 180.370321,86.8555046 180.698198,87.7844892 C181.018789,88.7025446 181.455958,89.4384461 181.995134,89.9666923 C182.537952,90.4912954 183.153632,90.8592461 183.827601,91.0669015 C184.516143,91.2782 185.277546,91.3474184 185.816721,91.3474184 C186.592697,91.3474184 187.445177,91.1470492 187.445177,91.1470492 C187.729337,91.1142615 187.889632,91.2891292 187.984352,91.5477876 C188.239367,92.2253999 188.960697,94.2545938 189.099133,94.6589753" id="Shape" fill="#FFFFFF" transform="translate(182.270544, 84.018248) scale(-1, 1) rotate(-180.000000) translate(-182.270544, -84.018248) "></path>
            <path d="M152.543767,105.761573 C152.070167,105.907296 151.640284,106.005659 151.07925,106.111308 C150.51093,106.213315 149.833318,106.264318 149.064629,106.264318 C146.383324,106.264318 144.270339,105.506558 142.787607,104.012896 C141.312161,102.526521 140.310315,100.26417 139.80757,97.2877763 L139.625416,96.2859302 L136.259213,96.2859302 C136.259213,96.2859302 135.851189,96.3005025 135.763755,95.8560471 L135.21365,92.770361 C135.173577,92.4789149 135.301084,92.2931179 135.694537,92.2931179 L138.969663,92.2931179 L135.647177,73.7425705 C135.388518,72.248909 135.089786,71.0211921 134.758266,70.0885645 C134.434032,69.1705091 134.117084,68.4819676 133.723632,67.9792229 C133.344752,67.4983368 132.98773,67.1413153 132.368407,66.9336599 C131.858377,66.7624353 131.268198,66.6822876 130.623374,66.6822876 C130.266352,66.6822876 129.789109,66.7405768 129.43573,66.8134383 C129.085995,66.8826568 128.900198,66.9591614 128.634254,67.0720968 C128.634254,67.0720968 128.251731,67.2178199 128.098721,66.8352968 C127.9785,66.5183491 127.104161,64.1175615 126.998512,63.8224722 C126.896506,63.527383 127.042229,63.2978692 127.228026,63.2286507 C127.665195,63.0756415 127.989429,62.9736353 128.583251,62.8315553 C129.406586,62.6384723 130.102414,62.627543 130.754524,62.627543 C132.117035,62.627543 133.362967,62.8206261 134.393958,63.1922199 C135.428592,63.5674569 136.332075,64.2195676 137.133552,65.1011922 C137.996961,66.0556784 138.53978,67.0538814 139.057096,68.4200352 C139.57077,69.7679737 140.011583,71.443789 140.361318,73.3964782 L143.702019,92.2931179 L148.583742,92.2931179 C148.583742,92.2931179 148.99541,92.2785456 149.079201,92.7266441 L149.632949,95.8086871 C149.669379,96.1037763 149.545515,96.2859302 149.148419,96.2859302 L144.408776,96.2859302 C144.434278,96.3915794 144.649219,98.0601086 145.192038,99.6302747 C145.425195,100.296958 145.862364,100.839776 146.230315,101.21137 C146.594623,101.575678 147.013576,101.834336 147.472604,101.983702 C147.942561,102.136712 148.478093,102.209573 149.064629,102.209573 C149.509084,102.209573 149.949896,102.15857 150.281416,102.089352 C150.740444,101.990989 150.918955,101.939985 151.039176,101.903555 C151.523706,101.757832 151.589281,101.899912 151.684001,102.133069 L152.816998,105.244256 C152.933576,105.579419 152.645773,105.721499 152.543767,105.761573" id="Shape" fill="#FFFFFF" transform="translate(139.904621, 84.445931) scale(-1, 1) rotate(-180.000000) translate(-139.904621, -84.445931) "></path>
            <path d="M86.3217408,63.5532376 C86.3217408,63.3055084 86.14323,63.1051391 85.8955008,63.1051391 L81.9646209,63.1051391 C81.7168916,63.1051391 81.542024,63.3055084 81.542024,63.5532376 L81.542024,95.1897171 C81.542024,95.4374463 81.7168916,95.6378155 81.9646209,95.6378155 L85.8955008,95.6378155 C86.14323,95.6378155 86.3217408,95.4374463 86.3217408,95.1897171 L86.3217408,63.5532376 Z" id="Shape" fill="#FFFFFF" transform="translate(83.931882, 79.371477) scale(-1, 1) rotate(-180.000000) translate(-83.931882, -79.371477) "></path>
        </g>
    </g>
</svg>