<?xml version="1.0" encoding="UTF-8"?>
<svg width="332px" height="165px" viewBox="0 0 332 165" version="1.1" xmlns="http://www.w3.org/2000/svg" xmlns:xlink="http://www.w3.org/1999/xlink">
    <!-- Generator: Sketch 51.3 (57544) - http://www.bohemiancoding.com/sketch -->
    <title>logo_sap</title>
    <desc>Created with Sketch.</desc>
    <defs>
        <polygon id="path-1" points="0.06 0.821 331.842 0.821 331.842 164.973 0.06 164.973"></polygon>
    </defs>
    <g id="logo_sap" stroke="none" stroke-width="1" fill="none" fill-rule="evenodd">
        <g id="Group-3">
            <mask id="mask-2" fill="white">
                <use xlink:href="#path-1"></use>
            </mask>
            <g id="Clip-2"></g>
            <polyline id="Fill-1" fill="#000000" mask="url(#mask-2)" points="0 164.973 167.699 164.973 331.842 0.821 0 0.821 0 164.973"></polyline>
        </g>
        <path d="M198.854,79.371 L191.652,79.371 L191.652,53.042 L198.854,53.042 C208.452,53.042 216.09,56.226 216.09,66.055 C216.09,76.185 208.452,79.371 198.854,79.371 Z M121.442,98.146 C117.637,98.146 114.056,97.47 110.973,96.298 L121.333,63.64 L121.545,63.64 L131.69,96.392 C128.643,97.497 125.159,98.146 121.442,98.146 Z M196.932,31.68 L164.269,31.672 L164.269,109.328 L135.731,31.672 L107.44,31.672 L83.071,96.609 C80.491,80.244 63.55,74.577 50.218,70.338 C41.403,67.517 32.089,63.354 32.172,58.76 C32.232,54.994 37.185,51.49 46.954,52.02 C53.522,52.374 59.327,52.896 70.845,58.464 L82.217,38.697 C71.678,33.336 57.131,29.961 45.214,29.941 L45.134,29.941 C31.235,29.941 19.644,34.457 12.468,41.873 C7.467,47.06 4.768,53.631 4.648,60.923 C4.47,70.952 8.145,78.055 15.875,83.735 C22.383,88.508 30.725,91.613 38.076,93.902 C47.14,96.701 54.542,99.141 54.451,104.348 C54.412,106.248 53.681,108.009 52.316,109.441 C50.049,111.78 46.583,112.659 41.788,112.751 C32.523,112.936 25.664,111.488 14.739,105.032 L4.648,125.067 C15.557,131.271 28.466,134.904 41.622,134.904 L43.319,134.89 C54.788,134.687 64.035,131.405 71.439,125.46 C71.845,125.134 72.239,124.777 72.628,124.431 L69.361,133.19 L99.022,133.19 L104.006,118.044 C109.219,119.802 115.146,120.8 121.442,120.8 C127.563,120.8 133.353,119.862 138.473,118.183 L143.269,133.19 L191.652,133.19 L191.652,101.822 L202.205,101.822 C227.715,101.822 242.818,88.836 242.818,67.058 C242.818,42.807 228.152,31.68 196.932,31.68 Z" id="Fill-4" fill="#FFFFFE"></path>
        <path d="M214.248,153.585 L214.248,149.794 L216.792,149.794 C218.063,149.794 219.436,150.065 219.436,151.592 C219.436,153.487 218.037,153.585 216.48,153.585 L214.248,153.585 Z M214.248,155.167 L216.388,155.167 L219.62,160.482 L221.713,160.482 L218.21,155.08 C220.011,154.868 221.396,153.904 221.396,151.705 C221.396,149.287 219.965,148.214 217.069,148.214 L212.394,148.214 L212.394,160.482 L214.248,160.482 L214.248,155.167 Z M216.507,165 C222.297,165 227.258,160.482 227.258,154.328 C227.258,148.214 222.297,143.708 216.507,143.708 C210.645,143.708 205.696,148.214 205.696,154.328 C205.696,160.482 210.645,165 216.507,165 Z M207.836,154.328 C207.836,149.287 211.639,145.471 216.507,145.471 C221.31,145.471 225.119,149.287 225.119,154.328 C225.119,159.454 221.31,163.222 216.507,163.222 C211.639,163.222 207.836,159.454 207.836,154.328 Z" id="Fill-5" fill="#000000"></path>
    </g>
</svg>