<?xml version="1.0" encoding="UTF-8"?>
<svg width="157px" height="30px" viewBox="0 0 157 30" version="1.1" xmlns="http://www.w3.org/2000/svg" xmlns:xlink="http://www.w3.org/1999/xlink">
    <!-- Generator: Sketch 51.3 (57544) - http://www.bohemiancoding.com/sketch -->
    <title>semaphore-logo</title>
    <desc>Created with Sketch.</desc>
    <defs></defs>
    <g id="Page-1" stroke="none" stroke-width="1" fill="none" fill-rule="evenodd">
        <g id="semaphore-logo" fill-rule="nonzero">
            <path d="M41,17.513 C41.17,19.733 42.935,20.967 45.573,20.967 C47.773,20.967 49.898,20.113 49.898,17.741 C49.898,16.071 48.836,15.18 47.148,14.724 L45.022,14.155 C43.998,13.871 43.656,13.491 43.656,12.941 C43.656,12.258 44.187,11.841 45.174,11.841 C46.18,11.841 47.052,12.277 47.128,13.377 L49.557,13.377 C49.387,11.081 47.64,10 45.326,10 C43.239,10 41.246,10.873 41.246,13.112 C41.246,14.667 42.214,15.635 43.979,16.109 L46.104,16.679 C47.09,16.944 47.489,17.343 47.489,17.931 C47.489,18.651 46.844,19.126 45.705,19.126 C44.548,19.126 43.542,18.652 43.448,17.513 L41,17.513 Z M54.075,20.777 L61.664,20.777 L61.664,18.747 L56.484,18.747 L56.484,16.394 L60.677,16.394 L60.677,14.364 L56.484,14.364 L56.484,12.22 L61.664,12.22 L61.664,10.19 L54.074,10.19 L54.074,20.777 L54.075,20.777 Z M66.125,20.777 L68.42,20.777 L68.42,13.32 L70.792,17.95 L72.12,17.95 L74.492,13.32 L74.492,20.777 L76.788,20.777 L76.788,10.19 L73.998,10.19 L71.532,14.99 L69.085,10.19 L66.125,10.19 L66.125,20.777 Z M80.698,20.777 L83.146,20.777 L83.791,18.86 L87.946,18.86 L88.61,20.777 L91.134,20.777 L87.244,10.19 L84.588,10.19 L80.698,20.777 Z M84.379,17.039 L85.859,12.58 L87.358,17.04 L84.379,17.04 L84.379,17.039 Z M95.044,20.777 L97.454,20.777 L97.454,17.362 L98.744,17.362 C101.723,17.362 103.544,16.242 103.544,13.776 C103.544,11.309 101.723,10.19 98.744,10.19 L95.044,10.19 L95.044,20.777 Z M97.454,15.388 L97.454,12.163 L98.724,12.163 C100.394,12.163 101.04,12.637 101.04,13.776 C101.04,14.933 100.395,15.388 98.725,15.388 L97.454,15.388 Z M107.777,20.777 L110.187,20.777 L110.187,16.413 L114.456,16.413 L114.456,20.777 L116.866,20.777 L116.866,10.19 L114.456,10.19 L114.456,14.326 L110.186,14.326 L110.186,10.19 L107.777,10.19 L107.777,20.777 Z M126.563,18.879 C124.438,18.879 123.926,17.153 123.926,15.483 C123.926,13.813 124.438,12.087 126.563,12.087 C128.688,12.087 129.2,13.814 129.2,15.483 C129.2,17.153 128.688,18.879 126.563,18.879 Z M126.563,20.967 C129.997,20.967 131.686,18.766 131.686,15.483 C131.686,12.201 129.996,10 126.563,10 C123.129,10 121.44,12.2 121.44,15.483 C121.44,18.766 123.129,20.967 126.563,20.967 Z M136.26,20.777 L138.67,20.777 L138.67,17.362 L140.283,17.362 L142.483,20.777 L145.253,20.777 L142.559,16.868 C143.849,16.394 144.76,15.445 144.76,13.776 C144.76,11.309 142.939,10.19 139.96,10.19 L136.26,10.19 L136.26,20.777 Z M138.67,15.388 L138.67,12.163 L139.941,12.163 C141.611,12.163 142.256,12.637 142.256,13.776 C142.256,14.933 141.611,15.388 139.941,15.388 L138.67,15.388 Z M149.41,20.777 L157,20.777 L157,18.747 L151.82,18.747 L151.82,16.394 L156.013,16.394 L156.013,14.364 L151.82,14.364 L151.82,12.22 L157,12.22 L157,10.19 L149.41,10.19 L149.41,20.777 Z" id="Shape" fill="#222222"></path>
            <path d="M27.238,6.703 C27.5309985,6.64527297 27.8297988,6.77056357 27.994,7.02 C27.994,7.02 28.571,7.959 28.913,8.709 C29.253,9.457 29.583,10.506 29.583,10.506 C29.6638644,10.7929658 29.5626056,11.1003023 29.327,11.283 L27.464,12.612 C27.2232206,12.8042716 27.0923606,13.1026324 27.114,13.41 C27.114,13.41 27.216,14.12 27.232,14.73 C27.247,15.33 27.182,16.023 27.182,16.023 C27.1756108,16.3312825 27.3224373,16.6226881 27.574,16.801 L29.504,18.029 C29.742,18.179 29.876,18.521 29.802,18.791 C29.802,18.791 29.527,19.858 29.225,20.625 C28.923,21.39 28.398,22.356 28.398,22.356 C28.2475451,22.6133721 27.9560362,22.7537868 27.661,22.711 L25.412,22.294 C25.1054726,22.2540258 24.7988846,22.3673138 24.592,22.597 C24.592,22.597 24.122,23.202 23.662,23.663 C23.149,24.176 22.428,24.723 22.428,24.723 C22.1957574,24.9261828 22.0780279,25.230411 22.113,25.537 L22.491,27.793 C22.5287274,28.0888857 22.3831463,28.3780699 22.123,28.524 C22.123,28.524 21.146,29.034 20.374,29.322 C19.604,29.61 18.534,29.866 18.534,29.866 C18.2424077,29.9260132 17.9435155,29.8034516 17.778,29.556 L16.582,27.605 C16.4067752,27.3510395 16.1175423,27.1998751 15.809,27.201 C15.809,27.201 15.196,27.249 14.636,27.231 C14.2277474,27.2130531 13.8206037,27.1753423 13.416,27.118 C13.107795,27.0947983 12.8081353,27.2258995 12.616,27.468 L11.286,29.33 C11.1030599,29.5659079 10.795466,29.6675167 10.508,29.587 C10.508,29.587 9.457,29.257 8.707,28.915 C7.958,28.574 7.021,27.999 7.021,27.999 C6.77166658,27.835232 6.64665333,27.5365453 6.705,27.244 L7.18,25.266 C7.279,24.856 7.6,24.281 7.897,23.983 L12.822,19.043 C14.6070559,20.0266641 16.8274226,19.7117896 18.2686061,18.2706061 C19.7097896,16.8294226 20.0246641,14.6090559 19.041,12.824 L23.974,7.891 C24.272,7.592 24.846,7.271 25.257,7.174 L27.238,6.703 Z" id="Shape" fill="#19A974"></path>
            <path d="M2.827,23.365 C2.53400146,23.422727 2.23520117,23.2974364 2.071,23.048 C2.071,23.048 1.494,22.109 1.153,21.359 C0.812,20.611 0.482,19.562 0.482,19.562 C0.40113556,19.2750342 0.50239444,18.9676977 0.738,18.785 L2.601,17.456 C2.84177945,17.2637284 2.97263942,16.9653676 2.951,16.658 C2.951,16.658 2.849,15.948 2.834,15.338 C2.819,14.738 2.884,14.045 2.884,14.045 C2.89016145,13.7365323 2.74294147,13.4450892 2.491,13.267 L0.561,12.039 C0.3157169,11.8689914 0.19820372,11.5670972 0.264,11.276 C0.264,11.276 0.539,10.21 0.84,9.443 C1.141,8.677 1.667,7.711 1.667,7.711 C1.81758797,7.45438525 2.10852152,7.31445254 2.403,7.357 L4.653,7.773 C4.95902263,7.81287913 5.26512657,7.70000563 5.472,7.471 C5.472,7.471 5.942,6.866 6.403,6.404 C6.916,5.892 7.637,5.346 7.637,5.346 C7.86949395,5.14219153 7.98689928,4.83708724 7.951,4.53 L7.573,2.275 C7.53574368,1.97893971 7.68167524,1.68984494 7.942,1.544 C7.942,1.544 8.918,1.034 9.69,0.745 C10.46,0.457 11.53,0.201 11.53,0.201 C11.801,0.133 12.14,0.271 12.287,0.511 L13.483,2.463 C13.63,2.703 13.977,2.883 14.255,2.866 C14.255,2.866 14.869,2.818 15.429,2.836 C16.006,2.856 16.649,2.95 16.649,2.95 C16.957205,2.97320167 17.2568647,2.84210053 17.449,2.6 L18.78,0.737 C18.9631897,0.50145995 19.2707391,0.40026117 19.558,0.481 C19.558,0.481 20.609,0.811 21.359,1.153 C22.108,1.493 23.045,2.069 23.045,2.069 C23.285,2.212 23.427,2.549 23.361,2.824 L22.886,4.802 C22.787,5.212 22.466,5.786 22.169,6.084 L17.244,11.025 C15.4589441,10.0413359 13.2385774,10.3562104 11.7973939,11.7973939 C10.3562104,13.2385774 10.0413359,15.4589441 11.025,17.244 L6.092,22.178 C5.793,22.476 5.219,22.797 4.809,22.894 L2.827,23.365 Z" id="Shape" fill="#F85418"></path>
        </g>
    </g>
</svg>