<?xml version="1.0" encoding="UTF-8"?>
<svg width="188px" height="34px" viewBox="0 0 188 34" version="1.1" xmlns="http://www.w3.org/2000/svg" xmlns:xlink="http://www.w3.org/1999/xlink">
    <!-- Generator: Sketch 51.3 (57544) - http://www.bohemiancoding.com/sketch -->
    <title>Sony</title>
    <desc>Created with Sketch.</desc>
    <defs></defs>
    <g id="Sony" stroke="none" stroke-width="1" fill="none" fill-rule="evenodd">
        <path d="M184.337,27.089 C182.755,27.089 181.478,28.366 181.478,29.933 C181.478,31.516 182.755,32.792 184.337,32.792 C185.912,32.792 187.181,31.516 187.181,29.933 C187.181,28.366 185.912,27.089 184.337,27.089 Z M184.337,32.449 C182.949,32.449 181.829,31.329 181.829,29.933 C181.829,28.552 182.949,27.433 184.337,27.433 C185.718,27.433 186.838,28.552 186.838,29.933 C186.838,31.329 185.718,32.449 184.337,32.449 Z" id="Fill-2" fill="#1A1919"></path>
        <path d="M185.8,29.187 C185.8,28.918 185.681,28.635 185.442,28.5 C185.203,28.359 184.934,28.344 184.666,28.344 L183.277,28.344 L183.277,31.531 L183.666,31.531 L183.666,30.06 L184.382,30.06 L185.293,31.531 L185.756,31.531 L184.793,30.06 C185.36,30.045 185.8,29.814 185.8,29.187 Z M184.263,29.754 L183.666,29.754 L183.666,28.627 L184.576,28.627 C184.972,28.627 185.405,28.687 185.405,29.179 C185.405,29.829 184.71,29.754 184.263,29.754 Z" id="Fill-3" fill="#1A1919"></path>
        <path d="M167.622,13.779 L173.453,7.554 C173.791,7.097 173.959,6.777 173.959,6.503 C173.959,6.046 173.565,5.863 172.33,5.863 L170.859,5.863 L170.859,1.933 L186.781,1.933 L186.781,5.863 L184.688,5.863 C182.272,5.863 181.822,6.228 178.453,10.478 L169.229,20.438 L169.229,26.516 C169.229,28.071 170.015,28.617 172.263,28.617 L175.745,28.617 L175.745,32.41 L153.444,32.41 L153.444,28.617 L156.927,28.617 C159.174,28.617 159.961,28.071 159.961,26.516 L159.961,20.438 L149.098,8.421 C147.301,6.32 147.55,5.863 142.552,5.863 L142.552,1.933 L162.72,1.933 L162.72,5.863 L161.284,5.863 C159.823,5.863 159.205,6.137 159.205,6.685 C159.205,7.143 159.654,7.509 159.935,7.873 L165.431,13.862 C166.082,14.541 166.878,14.63 167.622,13.779" id="Fill-4" fill="#1A1919"></path>
        <path d="M32.305,1.932 L37.17,1.932 L37.17,12.898 L32.677,12.898 C32.279,10.706 30.908,9.853 29.656,8.703 C27.398,6.629 22.511,4.902 18.4,4.902 C13.094,4.902 8.616,6.548 8.616,8.968 C8.616,15.686 38.961,10.34 38.961,23.042 C38.961,29.668 32.461,33.369 20.788,33.369 C16.747,33.369 10.632,32.114 7.024,30.199 C5.892,29.545 5.413,30.816 5.201,32.409 L0.213,32.409 L0.213,21.077 L4.724,21.077 C5.719,23.957 7.09,24.55 8.351,25.693 C10.539,27.703 15.747,29.166 20.523,29.119 C27.723,29.048 30.2,27.474 30.2,25.189 C30.2,22.905 27.751,22.357 19.86,21.123 L13.16,20.027 C5.599,18.884 0.094,17.193 0.094,11.162 C0.094,4.902 7.059,0.972 18.069,0.972 C22.708,0.972 26.592,1.592 30.317,3.699 C31.35,4.368 32.318,4.449 32.305,1.932" id="Fill-5" fill="#1A1919"></path>
        <path d="M127.248,20.291 L127.345,8.104 C127.345,6.505 126.514,5.956 124.136,5.956 L121.343,5.956 L121.343,2.164 L139.113,2.164 L139.113,5.956 L136.796,5.956 C134.418,5.956 133.586,6.505 133.586,8.104 L133.586,32.641 L126.629,32.587 L104.107,11.257 L104.107,26.746 C104.107,28.3 104.939,28.893 107.316,28.893 L110.406,28.893 L110.406,32.641 L91.953,32.641 L91.953,28.893 L95.01,28.893 C97.387,28.893 98.22,28.3 98.22,26.746 L98.22,8.104 C98.22,6.505 97.387,5.956 95.01,5.956 L91.953,5.956 L91.953,2.164 L107.91,2.164 L127.248,20.291" id="Fill-6" fill="#1A1919"></path>
        <path d="M67.726,0.742 C53.564,0.742 44.699,7.002 44.699,17.054 C44.699,26.925 53.441,33.138 67.294,33.138 C82.009,33.138 90.568,27.016 90.568,16.552 C90.568,7.14 81.331,0.742 67.726,0.742 Z M67.404,29.163 C59.565,29.163 55.059,24.639 55.059,16.826 C55.059,9.195 59.761,4.671 67.795,4.671 C75.503,4.671 80.01,9.287 80.01,17.146 C80.01,24.822 75.438,29.163 67.404,29.163 Z" id="Fill-7" fill="#1A1919"></path>
    </g>
</svg>