<svg id="Layer_1" data-name="Layer 1" xmlns="http://www.w3.org/2000/svg" viewBox="0 0 599.6 108.5"><defs><style>.cls-1{fill:#fff;}</style></defs><title>teamcity-logo</title><g id="Page-1"><g id="logo-text"><g id="Group"><polygon id="Shape" points="130.3 20.9 104.4 20.9 104.4 3.6 174.9 3.6 174.9 20.9 149 20.9 149 88.7 130.3 88.7 130.3 20.9"/><path d="M155.7,74.5v-.2c0-18.6,13.2-33.9,32.2-33.9,21.7,0,31.7,16.9,31.7,35.4,0,1.5-.1,3.2-.2,4.9H174.1c1.8,8.4,7.7,12.8,15.9,12.8,6.2,0,10.7-1.9,15.8-6.7l10.6,9.4c-6.1,7.5-14.8,12.2-26.6,12.2C170.2,108.2,155.7,94.4,155.7,74.5Zm46-5.5c-1.1-8.3-6-13.9-13.7-13.9S175.4,60.6,173.9,69Z" transform="translate(-0.2 -18)"/><path d="M220.9,88v-.2c0-14.2,10.8-20.8,26.2-20.8A45.42,45.42,0,0,1,263,69.7V68.6c0-7.7-4.7-11.9-14-11.9a48.1,48.1,0,0,0-18,3.5l-4.6-14.1c7.2-3.2,14.2-5.2,25.3-5.2,10.1,0,17.4,2.7,22,7.3,4.9,4.9,7,12,7,20.8v37.8H262.8v-7c-4.5,5-10.7,8.3-19.7,8.3C230.9,107.9,220.9,100.9,220.9,88Zm42.4-4.3V80.4A28.18,28.18,0,0,0,251.5,78c-7.9,0-12.8,3.2-12.8,9v.2c0,5,4.1,7.9,10.1,7.9C257.4,95.2,263.3,90.4,263.3,83.7Z" transform="translate(-0.2 -18)"/><path d="M284.5,41.6H303v9.2c4.3-5.5,9.8-10.4,19.2-10.4,8.5,0,14.9,3.8,18.3,10.3,5.7-6.7,12.5-10.3,21.4-10.3,13.7,0,22,8.3,22,23.9v42.4H365.4V70.4c0-8.7-3.9-13.2-10.8-13.2s-11.2,4.5-11.2,13.2v36.3H324.9V70.4c0-8.7-3.9-13.2-10.8-13.2s-11.2,4.5-11.2,13.2v36.3H284.4V41.6Z" transform="translate(-0.2 -18)"/><path d="M386,64.4v-.2c0-24.2,18.2-44,44.3-44,16,0,25.6,5.3,33.5,13.1L452,47c-6.6-6-13.2-9.6-21.7-9.6-14.3,0-24.7,11.9-24.7,26.5v.2c0,14.6,10.1,26.7,24.7,26.7,9.7,0,15.7-3.9,22.4-10l11.9,12c-8.7,9.4-18.5,15.2-34.9,15.2C404.6,108.2,386,88.8,386,64.4Z" transform="translate(-0.2 -18)"/><path d="M466.4,18h19.4V34.4H466.4Zm.5,23.6h18.5v65.1H466.9Z" transform="translate(-0.2 -18)"/><path d="M496.3,88.2V57.4h-7.8V41.6h7.8V24.9h18.5V41.5h15.3V57.3H514.8V85.1c0,4.3,1.8,6.3,6,6.3a19.48,19.48,0,0,0,9.1-2.3V104a27.4,27.4,0,0,1-14.6,3.8C504,107.8,496.3,103.3,496.3,88.2Z" transform="translate(-0.2 -18)"/><path d="M580.6,41.6h19.2l-25,66.7c-5,13.2-10.3,18.2-21.4,18.2A30.38,30.38,0,0,1,537,122l6.2-13.4a16.42,16.42,0,0,0,7.9,2.6c3.2,0,4.9-1,6.4-4.3L532,41.5h19.6l14.8,44.3Z" transform="translate(-0.2 -18)"/></g><rect id="Rectangle-path" y="3.7" width="85" height="85"/><polygon class="cls-1" points="14.4 18.6 7.9 18.6 7.9 14.3 25.5 14.3 25.5 18.6 19 18.6 19 35.5 14.4 35.5 14.4 18.6"/><path class="cls-1" d="M26,43A10.89,10.89,0,0,1,37.1,31.9a10.87,10.87,0,0,1,8.4,3.3l-3,3.4a7.69,7.69,0,0,0-5.4-2.4,6.32,6.32,0,0,0-6.2,6.6v.1c0,3.6,2.5,6.7,6.2,6.7,2.4,0,3.9-1,5.6-2.5l3,3A11,11,0,0,1,37,53.9,10.7,10.7,0,0,1,26,43" transform="translate(-0.2 -18)"/><rect class="cls-1" x="7.9" y="72.8" width="31.9" height="5.3"/></g></g></svg>