<?xml version="1.0" encoding="UTF-8"?>
<svg width="421px" height="73px" viewBox="0 0 421 73" version="1.1" xmlns="http://www.w3.org/2000/svg" xmlns:xlink="http://www.w3.org/1999/xlink">
    <!-- Generator: Sketch 51.3 (57544) - http://www.bohemiancoding.com/sketch -->
    <title>microsoft-visual-studio-2012-seeklogo.com</title>
    <desc>Created with Sketch.</desc>
    <defs>
        <polygon id="path-1" points="0 0.726 72.11 0.726 72.11 72.94 0 72.94"></polygon>
    </defs>
    <g id="microsoft-visual-studio-2012-seeklogo.com" stroke="none" stroke-width="1" fill="none" fill-rule="evenodd">
        <g id="Group-3">
            <mask id="mask-2" fill="white">
                <use xlink:href="#path-1"></use>
            </mask>
            <g id="Clip-2"></g>
            <path d="M35.4,36.945 L54.083,51.696 L54.083,22.194 L35.4,36.945 Z M7.211,26.127 L7.211,48.089 L18.028,36.945 L7.211,26.127 Z M54.248,0.726 L72.11,7.937 L72.11,65.787 L54.082,73 L25.402,44.483 L7.211,58.578 L0,54.975 L0,18.751 L7.211,15.313 L25.402,29.569 L54.248,0.726 Z" id="Fill-1" fill="#5A2967" mask="url(#mask-2)"></path>
        </g>
        <path d="M131.461,15.036 L115.324,58.613 L109.703,58.613 L93.901,15.036 L99.585,15.036 L111.648,49.587 C112.032,50.705 112.327,51.989 112.529,53.447 L112.652,53.447 C112.814,52.233 113.148,50.924 113.656,49.528 L125.963,15.036 L131.461,15.036" id="Fill-4" fill="#5A2967"></path>
        <path d="M135.187,58.613 L140.17,58.613 L140.17,27.495 L135.187,27.495 L135.187,58.613 Z M137.739,19.594 C136.848,19.594 136.087,19.29 135.461,18.681 C134.832,18.073 134.519,17.303 134.519,16.373 C134.519,15.443 134.832,14.665 135.461,14.048 C136.089,13.43 136.848,13.12 137.739,13.12 C138.651,13.12 139.426,13.43 140.064,14.048 C140.701,14.669 141.022,15.442 141.022,16.373 C141.022,17.265 140.703,18.023 140.064,18.653 C139.426,19.28 138.651,19.594 137.739,19.594 Z" id="Fill-5" fill="#5A2967"></path>
        <path d="M146.509,57.488 L146.509,52.14 C149.223,54.148 152.21,55.148 155.473,55.148 C159.85,55.148 162.038,53.689 162.038,50.772 C162.038,49.941 161.852,49.236 161.476,48.66 C161.101,48.081 160.595,47.569 159.955,47.125 C159.317,46.678 158.568,46.277 157.708,45.925 C156.846,45.568 155.919,45.199 154.927,44.814 C153.548,44.266 152.339,43.715 151.295,43.156 C150.25,42.6 149.382,41.973 148.681,41.275 C147.982,40.576 147.456,39.78 147.101,38.889 C146.748,38 146.569,36.955 146.569,35.759 C146.569,34.299 146.904,33.009 147.573,31.883 C148.241,30.758 149.133,29.818 150.247,29.056 C151.361,28.299 152.632,27.727 154.061,27.341 C155.489,26.958 156.963,26.766 158.482,26.766 C161.177,26.766 163.588,27.231 165.716,28.162 L165.716,33.208 C163.425,31.707 160.793,30.958 157.813,30.958 C156.883,30.958 156.041,31.064 155.292,31.277 C154.541,31.489 153.899,31.789 153.363,32.173 C152.827,32.558 152.411,33.021 152.118,33.554 C151.825,34.093 151.676,34.685 151.676,35.334 C151.676,36.142 151.823,36.819 152.118,37.371 C152.411,37.914 152.841,38.404 153.409,38.831 C153.975,39.255 154.664,39.639 155.475,39.984 C156.284,40.329 157.208,40.702 158.239,41.109 C159.616,41.637 160.853,42.176 161.947,42.735 C163.041,43.294 163.973,43.921 164.744,44.619 C165.513,45.319 166.106,46.125 166.522,47.034 C166.938,47.948 167.144,49.03 167.144,50.285 C167.144,51.826 166.806,53.163 166.127,54.296 C165.449,55.432 164.541,56.373 163.409,57.122 C162.275,57.872 160.967,58.43 159.488,58.794 C158.009,59.158 156.459,59.339 154.839,59.339 C151.634,59.343 148.858,58.728 146.509,57.488" id="Fill-6" fill="#5A2967"></path>
        <path d="M198.095,58.613 L193.111,58.613 L193.111,53.691 L192.989,53.691 C190.924,57.459 187.722,59.343 183.388,59.343 C175.973,59.343 172.265,54.926 172.265,46.094 L172.265,27.493 L177.218,27.493 L177.218,45.302 C177.218,51.865 179.728,55.148 184.754,55.148 C187.185,55.148 189.186,54.251 190.757,52.457 C192.326,50.663 193.111,48.318 193.111,45.423 L193.111,27.491 L198.095,27.491 L198.095,58.613" id="Fill-7" fill="#5A2967"></path>
        <path d="M223.576,42.872 L216.072,43.905 C213.763,44.229 212.019,44.802 210.846,45.623 C209.671,46.442 209.083,47.898 209.083,49.983 C209.083,51.503 209.625,52.743 210.709,53.704 C211.792,54.667 213.236,55.148 215.039,55.148 C217.509,55.148 219.552,54.28 221.162,52.552 C222.773,50.818 223.576,48.626 223.576,45.972 L223.576,42.872 Z M228.564,58.613 L223.58,58.613 L223.58,53.751 L223.458,53.751 C221.29,57.477 218.099,59.343 213.884,59.343 C210.785,59.343 208.36,58.524 206.607,56.879 C204.854,55.241 203.977,53.062 203.977,50.346 C203.977,44.532 207.4,41.149 214.248,40.196 L223.576,38.889 C223.576,33.603 221.439,30.958 217.165,30.958 C213.417,30.958 210.034,32.236 207.018,34.787 L207.018,29.682 C210.075,27.736 213.599,26.764 217.593,26.764 C224.906,26.764 228.564,30.636 228.564,38.373 L228.564,58.613 Z" id="Fill-8" fill="#5A2967"></path>
        <polygon id="Fill-9" fill="#5A2967" points="236.085 58.613 241.068 58.613 241.068 12.544 236.085 12.544"></polygon>
        <path d="M256.64,56.851 L256.64,50.834 C257.326,51.442 258.154,51.989 259.113,52.473 C260.076,52.959 261.087,53.371 262.154,53.704 C263.214,54.038 264.285,54.296 265.361,54.481 C266.435,54.663 267.427,54.755 268.337,54.755 C271.476,54.755 273.822,54.173 275.373,53.006 C276.923,51.842 277.697,50.165 277.697,47.978 C277.697,46.803 277.437,45.779 276.923,44.909 C276.406,44.037 275.693,43.242 274.781,42.525 C273.869,41.806 272.79,41.117 271.544,40.459 C270.3,39.8 268.956,39.106 267.517,38.377 C265.999,37.607 264.58,36.828 263.261,36.037 C261.945,35.243 260.8,34.375 259.83,33.422 C258.859,32.472 258.093,31.393 257.533,30.188 C256.976,28.982 256.699,27.567 256.699,25.95 C256.699,23.964 257.134,22.235 258.003,20.767 C258.874,19.3 260.019,18.089 261.439,17.134 C262.859,16.183 264.474,15.473 266.285,15.009 C268.099,14.542 269.945,14.309 271.833,14.309 C276.128,14.309 279.257,14.822 281.222,15.858 L281.222,21.598 C278.648,19.816 275.347,18.924 271.316,18.924 C270.201,18.924 269.087,19.043 267.972,19.275 C266.855,19.508 265.865,19.889 264.996,20.414 C264.124,20.94 263.415,21.619 262.867,22.449 C262.32,23.28 262.046,24.294 262.046,25.489 C262.046,26.606 262.255,27.566 262.669,28.378 C263.085,29.186 263.697,29.925 264.509,30.593 C265.316,31.262 266.308,31.91 267.474,32.538 C268.638,33.167 269.98,33.856 271.501,34.605 C273.058,35.375 274.539,36.185 275.935,37.035 C277.335,37.887 278.56,38.831 279.613,39.86 C280.664,40.896 281.501,42.039 282.119,43.296 C282.74,44.553 283.048,45.989 283.048,47.61 C283.048,49.756 282.624,51.577 281.787,53.066 C280.947,54.556 279.812,55.765 278.384,56.698 C276.955,57.629 275.31,58.304 273.445,58.718 C271.58,59.133 269.617,59.343 267.548,59.343 C266.857,59.343 266.007,59.286 264.998,59.177 C263.984,59.065 262.949,58.9 261.898,58.691 C260.845,58.477 259.847,58.214 258.904,57.9 C257.96,57.586 257.205,57.233 256.64,56.851" id="Fill-10" fill="#5A2967"></path>
        <path d="M302.564,58.312 C301.39,58.959 299.839,59.282 297.917,59.282 C292.464,59.282 289.742,56.241 289.742,50.165 L289.742,31.75 L284.396,31.75 L284.396,27.495 L289.742,27.495 L289.742,19.898 L294.726,18.288 L294.726,27.495 L302.564,27.495 L302.564,31.75 L294.726,31.75 L294.726,49.285 C294.726,51.371 295.078,52.858 295.789,53.751 C296.498,54.646 297.669,55.089 299.314,55.089 C300.568,55.089 301.654,54.743 302.564,54.054 L302.564,58.312" id="Fill-11" fill="#5A2967"></path>
        <path d="M333.447,58.613 L328.462,58.613 L328.462,53.691 L328.341,53.691 C326.275,57.459 323.076,59.343 318.738,59.343 C311.324,59.343 307.619,54.926 307.619,46.094 L307.619,27.493 L312.57,27.493 L312.57,45.302 C312.57,51.865 315.083,55.148 320.107,55.148 C322.54,55.148 324.539,54.251 326.111,52.457 C327.679,50.663 328.462,48.318 328.462,45.423 L328.462,27.491 L333.447,27.491 L333.447,58.613" id="Fill-12" fill="#5A2967"></path>
        <path d="M364.15,44.545 L364.15,39.955 C364.15,37.443 363.318,35.315 361.66,33.573 C359.998,31.83 357.892,30.958 355.339,30.958 C352.3,30.958 349.91,32.073 348.167,34.303 C346.425,36.529 345.554,39.609 345.554,43.541 C345.554,47.125 346.388,49.956 348.06,52.034 C349.732,54.11 351.974,55.148 354.794,55.148 C357.57,55.148 359.82,54.148 361.554,52.14 C363.283,50.136 364.15,47.603 364.15,44.545 Z M369.132,58.613 L364.15,58.613 L364.15,53.326 L364.029,53.326 C361.718,57.337 358.15,59.343 353.331,59.343 C349.421,59.343 346.296,57.951 343.955,55.165 C341.617,52.379 340.447,48.585 340.447,43.784 C340.447,38.638 341.744,34.515 344.335,31.416 C346.927,28.315 350.382,26.766 354.699,26.766 C358.974,26.766 362.083,28.448 364.029,31.813 L364.15,31.813 L364.15,12.544 L369.132,12.544 L369.132,58.613 Z" id="Fill-13" fill="#5A2967"></path>
        <path d="M378.289,58.613 L383.273,58.613 L383.273,27.495 L378.289,27.495 L378.289,58.613 Z M380.841,19.594 C379.951,19.594 379.191,19.29 378.564,18.681 C377.935,18.073 377.619,17.303 377.619,16.373 C377.619,15.443 377.933,14.665 378.564,14.048 C379.191,13.43 379.949,13.12 380.841,13.12 C381.751,13.12 382.529,13.43 383.167,14.048 C383.802,14.669 384.124,15.442 384.124,16.373 C384.124,17.265 383.804,18.023 383.167,18.653 C382.529,19.28 381.751,19.594 380.841,19.594 Z" id="Fill-14" fill="#5A2967"></path>
        <path d="M405.8,30.962 C402.597,30.962 400.068,32.052 398.201,34.228 C396.337,36.404 395.406,39.408 395.406,43.236 C395.406,46.925 396.347,49.83 398.232,51.959 C400.115,54.087 402.64,55.151 405.8,55.151 C409.019,55.151 411.498,54.107 413.23,52.019 C414.96,49.933 415.826,46.964 415.826,43.115 C415.826,39.224 414.96,36.228 413.23,34.12 C411.498,32.013 409.019,30.962 405.8,30.962 Z M405.435,59.343 C400.835,59.343 397.164,57.888 394.417,54.983 C391.671,52.075 390.3,48.221 390.3,43.419 C390.3,38.191 391.728,34.108 394.585,31.171 C397.443,28.233 401.302,26.764 406.165,26.764 C410.806,26.764 414.425,28.193 417.027,31.052 C419.63,33.906 420.931,37.869 420.931,42.933 C420.931,47.898 419.531,51.873 416.724,54.859 C413.917,57.849 410.154,59.343 405.435,59.343 Z" id="Fill-15" fill="#5A2967"></path>
    </g>
</svg>